<?xml version="1.0" encoding="UTF-8" standalone="no"?>
<!-- Created with Inkscape (http://www.inkscape.org/) -->

<svg
   xmlns:dc="http://purl.org/dc/elements/1.1/"
   xmlns:cc="http://creativecommons.org/ns#"
   xmlns:rdf="http://www.w3.org/1999/02/22-rdf-syntax-ns#"
   xmlns:svg="http://www.w3.org/2000/svg"
   xmlns="http://www.w3.org/2000/svg"
   xmlns:sodipodi="http://sodipodi.sourceforge.net/DTD/sodipodi-0.dtd"
   xmlns:inkscape="http://www.inkscape.org/namespaces/inkscape"
   id="svg3004"
   version="1.1"
   inkscape:version="0.48.4 r9939"
   width="877.05249"
   height="598.66248"
   xml:space="preserve"
   sodipodi:docname="ls_selection_effect.svg"><metadata
     id="metadata3010"><rdf:RDF><cc:Work
         rdf:about=""><dc:format>image/svg+xml</dc:format><dc:type
           rdf:resource="http://purl.org/dc/dcmitype/StillImage" /><dc:title /></cc:Work></rdf:RDF></metadata><defs
     id="defs3008"><marker
       inkscape:stockid="Arrow1Mend"
       orient="auto"
       refY="0"
       refX="0"
       id="Arrow1Mend"
       style="overflow:visible"><path
         id="path4387"
         d="M 0,0 5,-5 -12.5,0 5,5 0,0 z"
         style="fill-rule:evenodd;stroke:#000000;stroke-width:1pt"
         transform="matrix(-0.4,0,0,-0.4,-4,0)"
         inkscape:connector-curvature="0" /></marker><clipPath
       clipPathUnits="userSpaceOnUse"
       id="clipPath3030"><path
         d="m 34.27,28.67 671.06,0 0,460.62 -671.06,0 0,-460.62 z"
         id="path3032"
         inkscape:connector-curvature="0" /></clipPath></defs><sodipodi:namedview
     pagecolor="#ffffff"
     bordercolor="#666666"
     borderopacity="1"
     objecttolerance="10"
     gridtolerance="10"
     guidetolerance="10"
     inkscape:pageopacity="0"
     inkscape:pageshadow="2"
     inkscape:window-width="1920"
     inkscape:window-height="1031"
     id="namedview3006"
     showgrid="false"
     fit-margin-top="5"
     fit-margin-left="5"
     fit-margin-right="5"
     fit-margin-bottom="5"
     inkscape:zoom="0.50750278"
     inkscape:cx="822.90785"
     inkscape:cy="174.72995"
     inkscape:window-x="0"
     inkscape:window-y="25"
     inkscape:window-maximized="1"
     inkscape:current-layer="g3012"
     showguides="true"
     inkscape:guide-bbox="true" /><g
     id="g3012"
     inkscape:groupmode="layer"
     inkscape:label="random_6x10_horiz"
     transform="matrix(1.25,0,0,-1.25,-7.7522204,602.22865)"><g
       id="g5485"><g
         id="g3014" /><g
         id="g3016" /><g
         id="g3018" /><g
         id="g3020" /><g
         id="g3022" /><g
         id="g3024" /><g
         id="g3488" /><g
         id="g3490" /><g
         id="g3522" /><g
         id="g3524" /><g
         id="g3526" /><g
         id="g3528" /><g
         id="g3530" /><g
         id="g3532" /><g
         id="g3534" /><g
         id="g3536" /><g
         id="g3538" /><path
         sodipodi:nodetypes="cc"
         inkscape:connector-curvature="0"
         id="path3604"
         d="m 60.626042,203.91739 0,96.47499"
         style="fill:none;stroke:#000000;stroke-width:2.4000001;stroke-linecap:round;stroke-linejoin:round;stroke-miterlimit:4;stroke-opacity:1;stroke-dasharray:none;stroke-dashoffset:0;marker-end:url(#Arrow1Mend)" /><path
         style="fill:none;stroke:#000000;stroke-width:2.4000001;stroke-linecap:round;stroke-linejoin:round;stroke-miterlimit:4;stroke-opacity:1;stroke-dasharray:7.2, 7.2;stroke-dashoffset:0;marker-end:url(#Arrow1Mend)"
         d="m 60.626042,174.00446 0,-93.768616"
         id="path4843"
         inkscape:connector-curvature="0"
         sodipodi:nodetypes="cc" /><path
         id="path3048"
         style="fill:none;stroke:#7f7f7f;stroke-width:1.05999994;stroke-linecap:butt;stroke-linejoin:round;stroke-miterlimit:1;stroke-opacity:1;stroke-dasharray:none"
         d="m 60.631776,324.12776 0,137.47224"
         inkscape:connector-curvature="0"
         sodipodi:nodetypes="cc" /><path
         sodipodi:nodetypes="cc"
         id="path3050"
         style="fill:none;stroke:#7f7f7f;stroke-width:1.05999994;stroke-linecap:butt;stroke-linejoin:round;stroke-miterlimit:1;stroke-opacity:1;stroke-dasharray:none"
         d="m 184.94428,69.872962 0,391.727038"
         inkscape:connector-curvature="0" /><path
         sodipodi:nodetypes="cc"
         inkscape:connector-curvature="0"
         id="path4847"
         d="m 309.26278,343.15749 0,89.3161"
         style="fill:none;stroke:#000000;stroke-width:2.4000001;stroke-linecap:round;stroke-linejoin:round;stroke-miterlimit:4;stroke-opacity:1;stroke-dasharray:none;stroke-dashoffset:0;marker-end:url(#Arrow1Mend)" /><path
         id="path3052"
         style="fill:none;stroke:#7f7f7f;stroke-width:1.05999994;stroke-linecap:butt;stroke-linejoin:round;stroke-miterlimit:1;stroke-opacity:1;stroke-dasharray:none"
         d="m 309.26278,65.871976 0,262.677694"
         inkscape:connector-curvature="0"
         sodipodi:nodetypes="cc" /><path
         sodipodi:nodetypes="cc"
         id="path3054"
         style="fill:none;stroke:#7f7f7f;stroke-width:1.05999994;stroke-linecap:butt;stroke-linejoin:round;stroke-miterlimit:1;stroke-opacity:1;stroke-dasharray:none"
         d="m 433.58328,63.871483 0,397.728517"
         inkscape:connector-curvature="0" /><path
         sodipodi:nodetypes="cc"
         id="path3056"
         style="fill:none;stroke:#7f7f7f;stroke-width:1.05999994;stroke-linecap:butt;stroke-linejoin:round;stroke-miterlimit:1;stroke-opacity:1;stroke-dasharray:none"
         d="m 557.89178,57.870005 0,403.729995"
         inkscape:connector-curvature="0" /><path
         sodipodi:nodetypes="cc"
         id="path3058"
         style="fill:none;stroke:#7f7f7f;stroke-width:1.05999994;stroke-linecap:butt;stroke-linejoin:round;stroke-miterlimit:1;stroke-opacity:1;stroke-dasharray:none"
         d="m 682.21378,63.37136 0,398.22864"
         inkscape:connector-curvature="0" /><g
         transform="translate(0,-134.31408)"
         id="g4631"><path
           sodipodi:nodetypes="cc"
           inkscape:connector-curvature="0"
           d="m 64.77,191.44 626.65071,0"
           style="fill:none;stroke:#7f7f7f;stroke-width:1.05999994;stroke-linecap:butt;stroke-linejoin:round;stroke-miterlimit:1;stroke-opacity:1;stroke-dasharray:none"
           id="path3038" /><g
           id="g4126"
           transform="translate(-5.1282233,5.7304988)"><text
             transform="scale(1,-1)"
             id="text3506"
             x="14.4"
             y="-184.3725"><tspan
               style="font-size:10px;font-variant:normal;font-weight:normal;writing-mode:lr-tb;fill:#7f7f7f;fill-opacity:1;fill-rule:nonzero;stroke:none;font-family:Helvetica;-inkscape-font-specification:Helvetica"
               x="14.4 21.619999"
               y="-184.3725"
               sodipodi:role="line"
               id="tspan3508">R4</tspan></text>
</g><path
           d="m 39.371776,191.44 c 0,11.69 9.57,21.26 21.26,21.26 11.69,0 21.26,-9.57 21.26,-21.26 0,-11.69 -9.57,-21.26 -21.26,-21.26 -11.69,0 -21.26,9.57 -21.26,21.26"
           style="fill:#ffffff;fill-opacity:1;fill-rule:nonzero;stroke:#000000;stroke-width:0.75;stroke-linecap:round;stroke-linejoin:round;stroke-miterlimit:10;stroke-opacity:1;stroke-dasharray:none"
           id="path3108"
           inkscape:connector-curvature="0" /><text
           transform="scale(1,-1)"
           id="text3288"
           x="46.451775"
           y="-185.34"><tspan
             style="font-size:17px;font-variant:normal;font-weight:normal;writing-mode:lr-tb;fill:#000000;fill-opacity:1;fill-rule:nonzero;stroke:none;font-family:Helvetica;-inkscape-font-specification:Helvetica"
             x="46.451775 55.903774 65.355774"
             y="-185.34"
             sodipodi:role="line"
             id="tspan3290">144</tspan></text>
<path
           d="m 163.68428,191.44 c 0,11.69 9.57,21.26 21.26,21.26 11.7,0 21.26,-9.57 21.26,-21.26 0,-11.69 -9.56,-21.26 -21.26,-21.26 -11.69,0 -21.26,9.57 -21.26,21.26"
           style="fill:#ffffff;fill-opacity:1;fill-rule:nonzero;stroke:#000000;stroke-width:0.75;stroke-linecap:round;stroke-linejoin:round;stroke-miterlimit:10;stroke-opacity:1;stroke-dasharray:none"
           id="path3110"
           inkscape:connector-curvature="0" /><text
           transform="scale(1,-1)"
           id="text3292"
           x="170.77428"
           y="-185.34"><tspan
             style="font-size:17px;font-variant:normal;font-weight:normal;writing-mode:lr-tb;fill:#000000;fill-opacity:1;fill-rule:nonzero;stroke:none;font-family:Helvetica;-inkscape-font-specification:Helvetica"
             x="170.77428 180.22629 189.67828"
             y="-185.34"
             sodipodi:role="line"
             id="tspan3294">646</tspan></text>
<path
           d="m 288.00278,191.44 c 0,11.69 9.56,21.26 21.26,21.26 11.69,0 21.26,-9.57 21.26,-21.26 0,-11.69 -9.57,-21.26 -21.26,-21.26 -11.7,0 -21.26,9.57 -21.26,21.26"
           style="fill:#ffffff;fill-opacity:1;fill-rule:nonzero;stroke:#000000;stroke-width:0.75;stroke-linecap:round;stroke-linejoin:round;stroke-miterlimit:10;stroke-opacity:1;stroke-dasharray:none"
           id="path3112"
           inkscape:connector-curvature="0" /><text
           transform="scale(1,-1)"
           id="text3296"
           x="295.08279"
           y="-185.34"><tspan
             style="font-size:17px;font-variant:normal;font-weight:normal;writing-mode:lr-tb;fill:#000000;fill-opacity:1;fill-rule:nonzero;stroke:none;font-family:Helvetica;-inkscape-font-specification:Helvetica"
             x="295.08279 304.53479 313.98679"
             y="-185.34"
             sodipodi:role="line"
             id="tspan3298">697</tspan></text>
<path
           d="m 412.32328,191.44 c 0,11.69 9.57,21.26 21.26,21.26 11.69,0 21.26,-9.57 21.26,-21.26 0,-11.69 -9.57,-21.26 -21.26,-21.26 -11.69,0 -21.26,9.57 -21.26,21.26"
           style="fill:#ffffff;fill-opacity:1;fill-rule:nonzero;stroke:#000000;stroke-width:0.75;stroke-linecap:round;stroke-linejoin:round;stroke-miterlimit:10;stroke-opacity:1;stroke-dasharray:none"
           id="path3114"
           inkscape:connector-curvature="0" /><text
           transform="scale(1,-1)"
           id="text3300"
           x="419.40329"
           y="-185.34"><tspan
             style="font-size:17px;font-variant:normal;font-weight:normal;writing-mode:lr-tb;fill:#000000;fill-opacity:1;fill-rule:nonzero;stroke:none;font-family:Helvetica;-inkscape-font-specification:Helvetica"
             x="419.40329 428.85529 438.30728"
             y="-185.34"
             sodipodi:role="line"
             id="tspan3302">160</tspan></text>
<path
           d="m 536.63178,191.44 c 0,11.69 9.56,21.26 21.26,21.26 11.69,0 21.26,-9.57 21.26,-21.26 0,-11.69 -9.57,-21.26 -21.26,-21.26 -11.7,0 -21.26,9.57 -21.26,21.26"
           style="fill:#ffffff;fill-opacity:1;fill-rule:nonzero;stroke:#000000;stroke-width:0.75;stroke-linecap:round;stroke-linejoin:round;stroke-miterlimit:10;stroke-opacity:1;stroke-dasharray:none"
           id="path3116"
           inkscape:connector-curvature="0" /><text
           transform="scale(1,-1)"
           id="text3304"
           x="548.43176"
           y="-185.34"><tspan
             style="font-size:17px;font-variant:normal;font-weight:normal;writing-mode:lr-tb;fill:#000000;fill-opacity:1;fill-rule:nonzero;stroke:none;font-family:Helvetica;-inkscape-font-specification:Helvetica"
             x="548.43176 557.88379"
             y="-185.34"
             sodipodi:role="line"
             id="tspan3306">66</tspan></text>
<path
           d="m 660.95378,191.44 c 0,11.69 9.57,21.26 21.26,21.26 11.69,0 21.26,-9.57 21.26,-21.26 0,-11.69 -9.57,-21.26 -21.26,-21.26 -11.69,0 -21.26,9.57 -21.26,21.26"
           style="fill:#ffffff;fill-opacity:1;fill-rule:nonzero;stroke:#000000;stroke-width:0.75;stroke-linecap:round;stroke-linejoin:round;stroke-miterlimit:10;stroke-opacity:1;stroke-dasharray:none"
           id="path3118"
           inkscape:connector-curvature="0" /><text
           transform="scale(1,-1)"
           id="text3308"
           x="668.03381"
           y="-185.34"><tspan
             style="font-size:17px;font-variant:normal;font-weight:normal;writing-mode:lr-tb;fill:#000000;fill-opacity:1;fill-rule:nonzero;stroke:none;font-family:Helvetica;-inkscape-font-specification:Helvetica"
             x="668.03381 677.48578 686.93781"
             y="-185.34"
             sodipodi:role="line"
             id="tspan3310">138</tspan></text>
</g><g
         transform="translate(0,-68.66458)"
         id="g4655"><path
           sodipodi:nodetypes="cc"
           inkscape:connector-curvature="0"
           d="m 64.77,258.98 619.64898,0"
           style="fill:none;stroke:#7f7f7f;stroke-width:1.05999994;stroke-linecap:butt;stroke-linejoin:round;stroke-miterlimit:1;stroke-opacity:1;stroke-dasharray:none"
           id="path3040" /><g
           id="g4122"
           transform="translate(-5.0582233,3.5374939)"><text
             transform="scale(1,-1)"
             id="text3510"
             x="14.4"
             y="-251.91251"><tspan
               style="font-size:10px;font-variant:normal;font-weight:normal;writing-mode:lr-tb;fill:#7f7f7f;fill-opacity:1;fill-rule:nonzero;stroke:none;font-family:Helvetica;-inkscape-font-specification:Helvetica"
               x="14.4 21.619999"
               y="-251.91251"
               sodipodi:role="line"
               id="tspan3512">R3</tspan></text>
</g><path
           d="m 39.371776,258.98 c 0,11.69 9.57,21.26 21.26,21.26 11.69,0 21.26,-9.57 21.26,-21.26 0,-11.69 -9.57,-21.26 -21.26,-21.26 -11.69,0 -21.26,9.57 -21.26,21.26"
           style="fill:#cccccc;fill-opacity:1;fill-rule:nonzero;stroke:#000000;stroke-width:0.75;stroke-linecap:round;stroke-linejoin:round;stroke-miterlimit:10;stroke-opacity:1;stroke-dasharray:none"
           id="path3128"
           inkscape:connector-curvature="0" /><text
           transform="scale(1,-1)"
           id="text3328"
           x="46.451775"
           y="-252.88"><tspan
             style="font-size:17px;font-variant:normal;font-weight:normal;writing-mode:lr-tb;fill:#000000;fill-opacity:1;fill-rule:nonzero;stroke:none;font-family:Helvetica;-inkscape-font-specification:Helvetica"
             x="46.451775 55.903774 65.355774"
             y="-252.88"
             sodipodi:role="line"
             id="tspan3330">369</tspan></text>
<path
           d="m 163.68428,258.98 c 0,11.69 9.57,21.26 21.26,21.26 11.7,0 21.26,-9.57 21.26,-21.26 0,-11.69 -9.56,-21.26 -21.26,-21.26 -11.69,0 -21.26,9.57 -21.26,21.26"
           style="fill:#ffffff;fill-opacity:1;fill-rule:nonzero;stroke:#000000;stroke-width:0.75;stroke-linecap:round;stroke-linejoin:round;stroke-miterlimit:10;stroke-opacity:1;stroke-dasharray:none"
           id="path3130"
           inkscape:connector-curvature="0" /><text
           transform="scale(1,-1)"
           id="text3332"
           x="170.77428"
           y="-252.88"><tspan
             style="font-size:17px;font-variant:normal;font-weight:normal;writing-mode:lr-tb;fill:#000000;fill-opacity:1;fill-rule:nonzero;stroke:none;font-family:Helvetica;-inkscape-font-specification:Helvetica"
             x="170.77428 180.22629 189.67828"
             y="-252.88"
             sodipodi:role="line"
             id="tspan3334">588</tspan></text>
<path
           d="m 288.00278,258.98 c 0,11.69 9.56,21.26 21.26,21.26 11.69,0 21.26,-9.57 21.26,-21.26 0,-11.69 -9.57,-21.26 -21.26,-21.26 -11.7,0 -21.26,9.57 -21.26,21.26"
           style="fill:#ffffff;fill-opacity:1;fill-rule:nonzero;stroke:#000000;stroke-width:0.75;stroke-linecap:round;stroke-linejoin:round;stroke-miterlimit:10;stroke-opacity:1;stroke-dasharray:none"
           id="path3132"
           inkscape:connector-curvature="0" /><text
           transform="scale(1,-1)"
           id="text3336"
           x="295.08279"
           y="-252.88"><tspan
             style="font-size:17px;font-variant:normal;font-weight:normal;writing-mode:lr-tb;fill:#000000;fill-opacity:1;fill-rule:nonzero;stroke:none;font-family:Helvetica;-inkscape-font-specification:Helvetica"
             x="295.08279 304.53479 313.98679"
             y="-252.88"
             sodipodi:role="line"
             id="tspan3338">492</tspan></text>
<path
           d="m 412.32328,258.98 c 0,11.69 9.57,21.26 21.26,21.26 11.69,0 21.26,-9.57 21.26,-21.26 0,-11.69 -9.57,-21.26 -21.26,-21.26 -11.69,0 -21.26,9.57 -21.26,21.26"
           style="fill:#ffffff;fill-opacity:1;fill-rule:nonzero;stroke:#000000;stroke-width:0.75;stroke-linecap:round;stroke-linejoin:round;stroke-miterlimit:10;stroke-opacity:1;stroke-dasharray:none"
           id="path3134"
           inkscape:connector-curvature="0" /><text
           transform="scale(1,-1)"
           id="text3340"
           x="419.40329"
           y="-252.88"><tspan
             style="font-size:17px;font-variant:normal;font-weight:normal;writing-mode:lr-tb;fill:#000000;fill-opacity:1;fill-rule:nonzero;stroke:none;font-family:Helvetica;-inkscape-font-specification:Helvetica"
             x="419.40329 428.85529 438.30728"
             y="-252.88"
             sodipodi:role="line"
             id="tspan3342">350</tspan></text>
<path
           d="m 536.63178,258.98 c 0,11.69 9.56,21.26 21.26,21.26 11.69,0 21.26,-9.57 21.26,-21.26 0,-11.69 -9.57,-21.26 -21.26,-21.26 -11.7,0 -21.26,9.57 -21.26,21.26"
           style="fill:#ffffff;fill-opacity:1;fill-rule:nonzero;stroke:#000000;stroke-width:0.75;stroke-linecap:round;stroke-linejoin:round;stroke-miterlimit:10;stroke-opacity:1;stroke-dasharray:none"
           id="path3136"
           inkscape:connector-curvature="0" /><text
           transform="scale(1,-1)"
           id="text3344"
           x="543.71179"
           y="-252.88"><tspan
             style="font-size:17px;font-variant:normal;font-weight:normal;writing-mode:lr-tb;fill:#000000;fill-opacity:1;fill-rule:nonzero;stroke:none;font-family:Helvetica;-inkscape-font-specification:Helvetica"
             x="543.71179 553.16376 562.61578"
             y="-252.88"
             sodipodi:role="line"
             id="tspan3346">471</tspan></text>
<path
           d="m 660.95378,258.98 c 0,11.69 9.57,21.26 21.26,21.26 11.69,0 21.26,-9.57 21.26,-21.26 0,-11.69 -9.57,-21.26 -21.26,-21.26 -11.69,0 -21.26,9.57 -21.26,21.26"
           style="fill:#ffffff;fill-opacity:1;fill-rule:nonzero;stroke:#000000;stroke-width:0.75;stroke-linecap:round;stroke-linejoin:round;stroke-miterlimit:10;stroke-opacity:1;stroke-dasharray:none"
           id="path3138"
           inkscape:connector-curvature="0" /><text
           transform="scale(1,-1)"
           id="text3348"
           x="668.03381"
           y="-252.88"><tspan
             style="font-size:17px;font-variant:normal;font-weight:normal;writing-mode:lr-tb;fill:#000000;fill-opacity:1;fill-rule:nonzero;stroke:none;font-family:Helvetica;-inkscape-font-specification:Helvetica"
             x="668.03381 677.48578 686.93781"
             y="-252.88"
             sodipodi:role="line"
             id="tspan3350">366</tspan></text>
</g><path
         style="fill:none;stroke:#000000;stroke-width:2.4000001;stroke-linecap:round;stroke-linejoin:round;stroke-miterlimit:4;stroke-opacity:1;stroke-dasharray:none;stroke-dashoffset:0;marker-end:url(#Arrow1Mend)"
         d="m 203.71399,323.20235 82.31438,0"
         id="path4845"
         inkscape:connector-curvature="0"
         sodipodi:nodetypes="cc" /><path
         sodipodi:nodetypes="cc"
         inkscape:connector-curvature="0"
         id="path4820"
         d="m 78.520921,323.20235 83.314629,0"
         style="fill:none;stroke:#000000;stroke-width:2.4000001;stroke-linecap:round;stroke-linejoin:round;stroke-miterlimit:4;stroke-opacity:1;stroke-dasharray:none;stroke-dashoffset:0;marker-end:url(#Arrow1Mend)" /><path
         id="path3042"
         style="fill:none;stroke:#7f7f7f;stroke-width:1.05999994;stroke-linecap:butt;stroke-linejoin:round;stroke-miterlimit:1;stroke-opacity:1;stroke-dasharray:none"
         d="m 310.52801,323.23742 370.56871,0"
         inkscape:connector-curvature="0"
         sodipodi:nodetypes="cc" /><g
         transform="translate(-5.0832233,0.1399054)"
         id="g4118"><text
           y="-319.45251"
           x="14.4"
           id="text3514"
           transform="scale(1,-1)"><tspan
             id="tspan3516"
             sodipodi:role="line"
             y="-319.45251"
             x="14.4 21.619999"
             style="font-size:10px;font-variant:normal;font-weight:normal;writing-mode:lr-tb;fill:#7f7f7f;fill-opacity:1;fill-rule:nonzero;stroke:none;font-family:Helvetica;-inkscape-font-specification:Helvetica">R2</tspan></text>
</g><path
         inkscape:connector-curvature="0"
         id="path3148"
         style="fill:#ffffff;fill-opacity:1;fill-rule:nonzero;stroke:#000000;stroke-width:0.75;stroke-linecap:round;stroke-linejoin:round;stroke-miterlimit:10;stroke-opacity:1;stroke-dasharray:none"
         d="m 39.371776,323.23742 c 0,11.69 9.57,21.26 21.26,21.26 11.69,0 21.26,-9.57 21.26,-21.26 0,-11.69 -9.57,-21.26 -21.26,-21.26 -11.69,0 -21.26,9.57 -21.26,21.26" /><text
         y="-317.13742"
         x="46.451775"
         id="text3368"
         transform="scale(1,-1)"><tspan
           id="tspan3370"
           sodipodi:role="line"
           y="-317.13742"
           x="46.451775 55.903774 65.355774"
           style="font-size:17px;font-variant:normal;font-weight:normal;writing-mode:lr-tb;fill:#000000;fill-opacity:1;fill-rule:nonzero;stroke:none;font-family:Helvetica;-inkscape-font-specification:Helvetica">293</tspan></text>
<path
         inkscape:connector-curvature="0"
         id="path3150"
         style="fill:#ffffff;fill-opacity:1;fill-rule:nonzero;stroke:#000000;stroke-width:0.75;stroke-linecap:round;stroke-linejoin:round;stroke-miterlimit:10;stroke-opacity:1;stroke-dasharray:none"
         d="m 163.68428,323.23742 c 0,11.69 9.57,21.26 21.26,21.26 11.7,0 21.26,-9.57 21.26,-21.26 0,-11.69 -9.56,-21.26 -21.26,-21.26 -11.69,0 -21.26,9.57 -21.26,21.26" /><text
         y="-317.13742"
         x="170.77428"
         id="text3372"
         transform="scale(1,-1)"><tspan
           id="tspan3374"
           sodipodi:role="line"
           y="-317.13742"
           x="170.77428 180.22629 189.67828"
           style="font-size:17px;font-variant:normal;font-weight:normal;writing-mode:lr-tb;fill:#000000;fill-opacity:1;fill-rule:nonzero;stroke:none;font-family:Helvetica;-inkscape-font-specification:Helvetica">121</tspan></text>
<path
         inkscape:connector-curvature="0"
         id="path3152"
         style="fill:#ffffff;fill-opacity:1;fill-rule:nonzero;stroke:#000000;stroke-width:0.75;stroke-linecap:round;stroke-linejoin:round;stroke-miterlimit:10;stroke-opacity:1;stroke-dasharray:none"
         d="m 288.00278,323.23742 c 0,11.69 9.56,21.26 21.26,21.26 11.69,0 21.26,-9.57 21.26,-21.26 0,-11.69 -9.57,-21.26 -21.26,-21.26 -11.7,0 -21.26,9.57 -21.26,21.26" /><text
         y="-317.13742"
         x="299.81277"
         id="text3376"
         transform="scale(1,-1)"><tspan
           id="tspan3378"
           sodipodi:role="line"
           y="-317.13742"
           x="299.81277 309.26477"
           style="font-size:17px;font-variant:normal;font-weight:normal;writing-mode:lr-tb;fill:#000000;fill-opacity:1;fill-rule:nonzero;stroke:none;font-family:Helvetica;-inkscape-font-specification:Helvetica">92</tspan></text>
<path
         inkscape:connector-curvature="0"
         id="path3154"
         style="fill:#ffffff;fill-opacity:1;fill-rule:nonzero;stroke:#000000;stroke-width:0.75;stroke-linecap:round;stroke-linejoin:round;stroke-miterlimit:10;stroke-opacity:1;stroke-dasharray:none"
         d="m 412.32328,323.23742 c 0,11.69 9.57,21.26 21.26,21.26 11.69,0 21.26,-9.57 21.26,-21.26 0,-11.69 -9.57,-21.26 -21.26,-21.26 -11.69,0 -21.26,9.57 -21.26,21.26" /><text
         y="-317.13742"
         x="424.1333"
         id="text3380"
         transform="scale(1,-1)"><tspan
           id="tspan3382"
           sodipodi:role="line"
           y="-317.13742"
           x="424.1333 433.5853"
           style="font-size:17px;font-variant:normal;font-weight:normal;writing-mode:lr-tb;fill:#000000;fill-opacity:1;fill-rule:nonzero;stroke:none;font-family:Helvetica;-inkscape-font-specification:Helvetica">86</tspan></text>
<path
         inkscape:connector-curvature="0"
         id="path3156"
         style="fill:#ffffff;fill-opacity:1;fill-rule:nonzero;stroke:#000000;stroke-width:0.75;stroke-linecap:round;stroke-linejoin:round;stroke-miterlimit:10;stroke-opacity:1;stroke-dasharray:none"
         d="m 536.63178,323.23742 c 0,11.69 9.56,21.26 21.26,21.26 11.69,0 21.26,-9.57 21.26,-21.26 0,-11.69 -9.57,-21.26 -21.26,-21.26 -11.7,0 -21.26,9.57 -21.26,21.26" /><text
         y="-317.13742"
         x="543.71179"
         id="text3384"
         transform="scale(1,-1)"><tspan
           id="tspan3386"
           sodipodi:role="line"
           y="-317.13742"
           x="543.71179 553.16376 562.61578"
           style="font-size:17px;font-variant:normal;font-weight:normal;writing-mode:lr-tb;fill:#000000;fill-opacity:1;fill-rule:nonzero;stroke:none;font-family:Helvetica;-inkscape-font-specification:Helvetica">202</tspan></text>
<path
         inkscape:connector-curvature="0"
         id="path3158"
         style="fill:#ffffff;fill-opacity:1;fill-rule:nonzero;stroke:#000000;stroke-width:0.75;stroke-linecap:round;stroke-linejoin:round;stroke-miterlimit:10;stroke-opacity:1;stroke-dasharray:none"
         d="m 660.95378,323.23742 c 0,11.69 9.57,21.26 21.26,21.26 11.69,0 21.26,-9.57 21.26,-21.26 0,-11.69 -9.57,-21.26 -21.26,-21.26 -11.69,0 -21.26,9.57 -21.26,21.26" /><text
         y="-317.13742"
         x="668.03381"
         id="text3388"
         transform="scale(1,-1)"><tspan
           id="tspan3390"
           sodipodi:role="line"
           y="-317.13742"
           x="668.03381 677.48578 686.93781"
           style="font-size:17px;font-variant:normal;font-weight:normal;writing-mode:lr-tb;fill:#000000;fill-opacity:1;fill-rule:nonzero;stroke:none;font-family:Helvetica;-inkscape-font-specification:Helvetica">733</tspan></text>
<g
         transform="translate(0,62.09542)"
         id="g4436"><path
           sodipodi:nodetypes="cc"
           inkscape:connector-curvature="0"
           d="m 64.77,394.06 621.64948,0"
           style="fill:none;stroke:#7f7f7f;stroke-width:1.05999994;stroke-linecap:butt;stroke-linejoin:round;stroke-miterlimit:1;stroke-opacity:1;stroke-dasharray:none"
           id="path3044" /><g
           id="g4114"
           transform="translate(-4.2632233,3.1534988)"><text
             transform="scale(1,-1)"
             id="text3518"
             x="14.4"
             y="-386.99249"><tspan
               style="font-size:10px;font-variant:normal;font-weight:normal;writing-mode:lr-tb;fill:#7f7f7f;fill-opacity:1;fill-rule:nonzero;stroke:none;font-family:Helvetica;-inkscape-font-specification:Helvetica"
               x="14.4 21.619999"
               y="-386.99249"
               sodipodi:role="line"
               id="tspan3520">R1</tspan></text>
</g><path
           d="m 39.371776,394.06 c 0,11.69 9.57,21.26 21.26,21.26 11.69,0 21.26,-9.57 21.26,-21.26 0,-11.69 -9.57,-21.26 -21.26,-21.26 -11.69,0 -21.26,9.57 -21.26,21.26"
           style="fill:#ffffff;fill-opacity:1;fill-rule:nonzero;stroke:#000000;stroke-width:0.75;stroke-linecap:round;stroke-linejoin:round;stroke-miterlimit:10;stroke-opacity:1;stroke-dasharray:none"
           id="path3168"
           inkscape:connector-curvature="0" /><text
           transform="scale(1,-1)"
           id="text3408"
           x="46.451775"
           y="-387.95999"><tspan
             style="font-size:17px;font-variant:normal;font-weight:normal;writing-mode:lr-tb;fill:#000000;fill-opacity:1;fill-rule:nonzero;stroke:none;font-family:Helvetica;-inkscape-font-specification:Helvetica"
             x="46.451775 55.903774 65.355774"
             y="-387.95999"
             sodipodi:role="line"
             id="tspan3410">934</tspan></text>
<path
           d="m 163.68428,394.06 c 0,11.69 9.57,21.26 21.26,21.26 11.7,0 21.26,-9.57 21.26,-21.26 0,-11.69 -9.56,-21.26 -21.26,-21.26 -11.69,0 -21.26,9.57 -21.26,21.26"
           style="fill:#ffffff;fill-opacity:1;fill-rule:nonzero;stroke:#000000;stroke-width:0.75;stroke-linecap:round;stroke-linejoin:round;stroke-miterlimit:10;stroke-opacity:1;stroke-dasharray:none"
           id="path3170"
           inkscape:connector-curvature="0" /><text
           transform="scale(1,-1)"
           id="text3412"
           x="170.77428"
           y="-387.95999"><tspan
             style="font-size:17px;font-variant:normal;font-weight:normal;writing-mode:lr-tb;fill:#000000;fill-opacity:1;fill-rule:nonzero;stroke:none;font-family:Helvetica;-inkscape-font-specification:Helvetica"
             x="170.77428 180.22629 189.67828"
             y="-387.95999"
             sodipodi:role="line"
             id="tspan3414">545</tspan></text>
<path
           d="m 288.00278,394.06 c 0,11.69 9.56,21.26 21.26,21.26 11.69,0 21.26,-9.57 21.26,-21.26 0,-11.69 -9.57,-21.26 -21.26,-21.26 -11.7,0 -21.26,9.57 -21.26,21.26"
           style="fill:#ffffff;fill-opacity:1;fill-rule:nonzero;stroke:#000000;stroke-width:0.75;stroke-linecap:round;stroke-linejoin:round;stroke-miterlimit:10;stroke-opacity:1;stroke-dasharray:none"
           id="path3172"
           inkscape:connector-curvature="0" /><text
           transform="scale(1,-1)"
           id="text3416"
           x="299.81277"
           y="-387.95999"><tspan
             style="font-size:17px;font-variant:normal;font-weight:normal;writing-mode:lr-tb;fill:#000000;fill-opacity:1;fill-rule:nonzero;stroke:none;font-family:Helvetica;-inkscape-font-specification:Helvetica"
             x="299.81277 309.26477"
             y="-387.95999"
             sodipodi:role="line"
             id="tspan3418">39</tspan></text>
<path
           d="m 412.32328,394.06 c 0,11.69 9.57,21.26 21.26,21.26 11.69,0 21.26,-9.57 21.26,-21.26 0,-11.69 -9.57,-21.26 -21.26,-21.26 -11.69,0 -21.26,9.57 -21.26,21.26"
           style="fill:#ffffff;fill-opacity:1;fill-rule:nonzero;stroke:#000000;stroke-width:0.75;stroke-linecap:round;stroke-linejoin:round;stroke-miterlimit:10;stroke-opacity:1;stroke-dasharray:none"
           id="path3174"
           inkscape:connector-curvature="0" /><text
           transform="scale(1,-1)"
           id="text3420"
           x="419.40329"
           y="-387.95999"><tspan
             style="font-size:17px;font-variant:normal;font-weight:normal;writing-mode:lr-tb;fill:#000000;fill-opacity:1;fill-rule:nonzero;stroke:none;font-family:Helvetica;-inkscape-font-specification:Helvetica"
             x="419.40329 428.85529 438.30728"
             y="-387.95999"
             sodipodi:role="line"
             id="tspan3422">451</tspan></text>
<path
           d="m 536.63178,394.06 c 0,11.69 9.56,21.26 21.26,21.26 11.69,0 21.26,-9.57 21.26,-21.26 0,-11.69 -9.57,-21.26 -21.26,-21.26 -11.7,0 -21.26,9.57 -21.26,21.26"
           style="fill:#ffffff;fill-opacity:1;fill-rule:nonzero;stroke:#000000;stroke-width:0.75;stroke-linecap:round;stroke-linejoin:round;stroke-miterlimit:10;stroke-opacity:1;stroke-dasharray:none"
           id="path3176"
           inkscape:connector-curvature="0" /><text
           transform="scale(1,-1)"
           id="text3424"
           x="543.71179"
           y="-387.95999"><tspan
             style="font-size:17px;font-variant:normal;font-weight:normal;writing-mode:lr-tb;fill:#000000;fill-opacity:1;fill-rule:nonzero;stroke:none;font-family:Helvetica;-inkscape-font-specification:Helvetica"
             x="543.71179 553.16376 562.61578"
             y="-387.95999"
             sodipodi:role="line"
             id="tspan3426">657</tspan></text>
<path
           d="m 660.95378,394.06 c 0,11.69 9.57,21.26 21.26,21.26 11.69,0 21.26,-9.57 21.26,-21.26 0,-11.69 -9.57,-21.26 -21.26,-21.26 -11.69,0 -21.26,9.57 -21.26,21.26"
           style="fill:#ffffff;fill-opacity:1;fill-rule:nonzero;stroke:#000000;stroke-width:0.75;stroke-linecap:round;stroke-linejoin:round;stroke-miterlimit:10;stroke-opacity:1;stroke-dasharray:none"
           id="path3178"
           inkscape:connector-curvature="0" /><text
           transform="scale(1,-1)"
           id="text3428"
           x="668.03381"
           y="-387.95999"><tspan
             style="font-size:17px;font-variant:normal;font-weight:normal;writing-mode:lr-tb;fill:#000000;fill-opacity:1;fill-rule:nonzero;stroke:none;font-family:Helvetica;-inkscape-font-specification:Helvetica"
             x="668.03381 677.48578 686.93781"
             y="-387.95999"
             sodipodi:role="line"
             id="tspan3430">975</tspan></text>
</g><g
         transform="translate(0,-142.08012)"
         id="g4617"><text
           id="text3542"
           transform="scale(1,-1)"
           x="54.241776"
           y="-149.16304"><tspan
             id="tspan3544"
             sodipodi:role="line"
             y="-149.16304"
             x="54.241776 61.461773"
             style="font-size:10px;font-variant:normal;font-weight:normal;writing-mode:lr-tb;fill:#7f7f7f;fill-opacity:1;fill-rule:nonzero;stroke:none;font-family:Helvetica;-inkscape-font-specification:Helvetica">C1</tspan></text>
<text
           id="text3546"
           transform="scale(1,-1)"
           x="178.55429"
           y="-149.16304"><tspan
             id="tspan3548"
             sodipodi:role="line"
             y="-149.16304"
             x="178.55429 185.77429"
             style="font-size:10px;font-variant:normal;font-weight:normal;writing-mode:lr-tb;fill:#7f7f7f;fill-opacity:1;fill-rule:nonzero;stroke:none;font-family:Helvetica;-inkscape-font-specification:Helvetica">C2</tspan></text>
<text
           id="text3550"
           transform="scale(1,-1)"
           x="302.87277"
           y="-149.16304"><tspan
             id="tspan3552"
             sodipodi:role="line"
             y="-149.16304"
             x="302.87277 310.09277"
             style="font-size:10px;font-variant:normal;font-weight:normal;writing-mode:lr-tb;fill:#7f7f7f;fill-opacity:1;fill-rule:nonzero;stroke:none;font-family:Helvetica;-inkscape-font-specification:Helvetica">C3</tspan></text>
<text
           id="text3554"
           transform="scale(1,-1)"
           x="427.1933"
           y="-149.16304"><tspan
             id="tspan3556"
             sodipodi:role="line"
             y="-149.16304"
             x="427.1933 434.4133"
             style="font-size:10px;font-variant:normal;font-weight:normal;writing-mode:lr-tb;fill:#7f7f7f;fill-opacity:1;fill-rule:nonzero;stroke:none;font-family:Helvetica;-inkscape-font-specification:Helvetica">C4</tspan></text>
<text
           id="text3558"
           transform="scale(1,-1)"
           x="551.50177"
           y="-149.16304"><tspan
             id="tspan3560"
             sodipodi:role="line"
             y="-149.16304"
             x="551.50177 558.72174"
             style="font-size:10px;font-variant:normal;font-weight:normal;writing-mode:lr-tb;fill:#7f7f7f;fill-opacity:1;fill-rule:nonzero;stroke:none;font-family:Helvetica;-inkscape-font-specification:Helvetica">C5</tspan></text>
<text
           id="text3562"
           transform="scale(1,-1)"
           x="675.82379"
           y="-149.16304"><tspan
             id="tspan3564"
             sodipodi:role="line"
             y="-149.16304"
             x="675.82379 683.04376"
             style="font-size:10px;font-variant:normal;font-weight:normal;writing-mode:lr-tb;fill:#7f7f7f;fill-opacity:1;fill-rule:nonzero;stroke:none;font-family:Helvetica;-inkscape-font-specification:Helvetica">C6</tspan></text>
</g><g
         id="g3582" /><g
         id="g3584" /><g
         id="g3586" /><g
         id="g3588" /><g
         id="g3590" /><g
         id="g3592" /><g
         id="g3594" /><g
         id="g3596" /><g
         id="g3598" /><g
         id="g3600" /><g
         id="g3602" /><text
         transform="scale(1,-1)"
         sodipodi:linespacing="125%"
         id="text5477"
         y="-276.70837"
         x="90.36097"
         style="font-size:19.25490379px;font-style:normal;font-variant:normal;font-weight:normal;font-stretch:normal;text-align:start;line-height:125%;letter-spacing:0px;word-spacing:0px;writing-mode:lr-tb;text-anchor:start;fill:#000000;fill-opacity:1;stroke:none;font-family:EHUSerif;-inkscape-font-specification:EHUSerif"
         xml:space="preserve"><tspan
           style="font-style:italic;font-family:EHUSan;-inkscape-font-specification:EHUSan"
           y="-276.70837"
           x="90.36097"
           id="tspan5479"
           sodipodi:role="line">First Improvement</tspan></text>
<text
         xml:space="preserve"
         style="font-size:19.25490379px;font-style:normal;font-variant:normal;font-weight:normal;font-stretch:normal;text-align:start;line-height:125%;letter-spacing:0px;word-spacing:0px;writing-mode:lr-tb;text-anchor:start;fill:#000000;fill-opacity:1;stroke:none;font-family:EHUSerif;-inkscape-font-specification:EHUSerif"
         x="90.0131"
         y="-120.90813"
         id="text5481"
         sodipodi:linespacing="125%"
         transform="scale(1,-1)"><tspan
           sodipodi:role="line"
           id="tspan5483"
           x="90.0131"
           y="-120.90813"
           style="font-style:italic;font-family:EHUSan;-inkscape-font-specification:EHUSan">Greedy</tspan></text>
</g></g></svg>