<?xml version="1.0" encoding="UTF-8" standalone="no"?>
<!-- Created with Inkscape (http://www.inkscape.org/) -->

<svg
   xmlns:dc="http://purl.org/dc/elements/1.1/"
   xmlns:cc="http://creativecommons.org/ns#"
   xmlns:rdf="http://www.w3.org/1999/02/22-rdf-syntax-ns#"
   xmlns:svg="http://www.w3.org/2000/svg"
   xmlns="http://www.w3.org/2000/svg"
   xmlns:sodipodi="http://sodipodi.sourceforge.net/DTD/sodipodi-0.dtd"
   xmlns:inkscape="http://www.inkscape.org/namespaces/inkscape"
   width="260.9585"
   height="298.54288"
   id="svg2"
   version="1.1"
   inkscape:version="0.48.5 r10040"
   sodipodi:docname="New document 1">
  <defs
     id="defs4" />
  <sodipodi:namedview
     id="base"
     pagecolor="#ffffff"
     bordercolor="#666666"
     borderopacity="1.0"
     inkscape:pageopacity="0.0"
     inkscape:pageshadow="2"
     inkscape:zoom="0.7"
     inkscape:cx="-82.334935"
     inkscape:cy="313.71167"
     inkscape:document-units="px"
     inkscape:current-layer="layer1"
     showgrid="false"
     fit-margin-top="10"
     fit-margin-left="10"
     fit-margin-right="10"
     fit-margin-bottom="10"
     inkscape:window-width="1400"
     inkscape:window-height="996"
     inkscape:window-x="0"
     inkscape:window-y="25"
     inkscape:window-maximized="1" />
  <metadata
     id="metadata7">
    <rdf:RDF>
      <cc:Work
         rdf:about="">
        <dc:format>image/svg+xml</dc:format>
        <dc:type
           rdf:resource="http://purl.org/dc/dcmitype/StillImage" />
        <dc:title></dc:title>
      </cc:Work>
    </rdf:RDF>
  </metadata>
  <g
     inkscape:label="Layer 1"
     inkscape:groupmode="layer"
     id="layer1"
     transform="translate(-221.72236,-57.99779)">
    <g
       id="g4023"
       transform="matrix(1.7106509,0,0,1.7106509,-164.67369,-48.322688)">
      <path
         inkscape:connector-curvature="0"
         id="path4015"
         d="m 366.18031,197.77314 -127.7843,0"
         style="fill:none;stroke:#000000;stroke-width:1px;stroke-linecap:butt;stroke-linejoin:miter;stroke-opacity:1"
         sodipodi:nodetypes="cc" />
      <path
         sodipodi:nodetypes="cc"
         style="fill:none;stroke:#000000;stroke-width:1px;stroke-linecap:butt;stroke-linejoin:miter;stroke-opacity:1"
         d="M 302.03562,225.04725 238.39601,198.78328"
         id="path4013"
         inkscape:connector-curvature="0" />
      <path
         inkscape:connector-curvature="0"
         id="path4003"
         d="M 302.54069,109.88986 335.37065,75.039594"
         style="fill:none;stroke:#000000;stroke-width:1px;stroke-linecap:butt;stroke-linejoin:miter;stroke-opacity:1" />
      <path
         sodipodi:nodetypes="cc"
         style="fill:none;stroke:#000000;stroke-width:1px;stroke-linecap:butt;stroke-linejoin:miter;stroke-opacity:1"
         d="m 302.54069,109.88986 63.13454,26.76904"
         id="path4005"
         inkscape:connector-curvature="0" />
      <path
         inkscape:connector-curvature="0"
         id="path4007"
         d="m 302.15124,109.88986 0,113.13708"
         style="fill:none;stroke:#000000;stroke-width:1px;stroke-linecap:butt;stroke-linejoin:miter;stroke-opacity:1"
         sodipodi:nodetypes="cc" />
      <path
         sodipodi:nodetypes="cc"
         style="fill:none;stroke:#000000;stroke-width:1px;stroke-linecap:butt;stroke-linejoin:miter;stroke-opacity:1"
         d="m 367.19045,137.16398 -128.79444,61.6193"
         id="path4009"
         inkscape:connector-curvature="0" />
      <path
         inkscape:connector-curvature="0"
         id="path4011"
         d="m 238.25909,138.17413 0,60.60915"
         style="fill:none;stroke:#000000;stroke-width:1px;stroke-linecap:butt;stroke-linejoin:miter;stroke-opacity:1"
         sodipodi:nodetypes="cc" />
      <path
         d="m 275.26655,179.84293 c 0,6.13681 -4.97486,11.11167 -11.11167,11.11167 -6.13681,0 -11.11168,-4.97486 -11.11168,-11.11167 0,-6.13681 4.97487,-11.11168 11.11168,-11.11168 6.13681,0 11.11167,4.97487 11.11167,11.11168 z"
         sodipodi:ry="11.111678"
         sodipodi:rx="11.111678"
         sodipodi:cy="179.84293"
         sodipodi:cx="264.15488"
         id="path3979"
         style="fill:#ffffff;fill-opacity:1;stroke:#000000;stroke-width:1.84067595;stroke-miterlimit:4;stroke-opacity:1;stroke-dasharray:none"
         sodipodi:type="arc"
         transform="matrix(0.54327869,0,0,0.54327869,222.53368,38.95408)" />
      <path
         transform="matrix(0.54327869,0,0,0.54327869,222.53368,100.06831)"
         sodipodi:type="arc"
         style="fill:#ffffff;fill-opacity:1;stroke:#000000;stroke-width:1.84067595;stroke-miterlimit:4;stroke-opacity:1;stroke-dasharray:none"
         id="path3981"
         sodipodi:cx="264.15488"
         sodipodi:cy="179.84293"
         sodipodi:rx="11.111678"
         sodipodi:ry="11.111678"
         d="m 275.26655,179.84293 c 0,6.13681 -4.97486,11.11167 -11.11167,11.11167 -6.13681,0 -11.11168,-4.97486 -11.11168,-11.11167 0,-6.13681 4.97487,-11.11168 11.11168,-11.11168 6.13681,0 11.11167,4.97487 11.11167,11.11168 z" />
      <path
         transform="matrix(0.54327869,0,0,0.54327869,158.64152,12.437574)"
         sodipodi:type="arc"
         style="fill:#ffffff;fill-opacity:1;stroke:#000000;stroke-width:1.84067595;stroke-miterlimit:4;stroke-opacity:1;stroke-dasharray:none"
         id="path3977"
         sodipodi:cx="264.15488"
         sodipodi:cy="179.84293"
         sodipodi:rx="11.111678"
         sodipodi:ry="11.111678"
         d="m 275.26655,179.84293 c 0,6.13681 -4.97486,11.11167 -11.11167,11.11167 -6.13681,0 -11.11168,-4.97486 -11.11168,-11.11167 0,-6.13681 4.97487,-11.11168 11.11168,-11.11168 6.13681,0 11.11167,4.97487 11.11167,11.11168 z" />
      <path
         d="m 275.26655,179.84293 c 0,6.13681 -4.97486,11.11167 -11.11167,11.11167 -6.13681,0 -11.11168,-4.97486 -11.11168,-11.11167 0,-6.13681 4.97487,-11.11168 11.11168,-11.11168 6.13681,0 11.11167,4.97487 11.11167,11.11168 z"
         sodipodi:ry="11.111678"
         sodipodi:rx="11.111678"
         sodipodi:cy="179.84293"
         sodipodi:cx="264.15488"
         id="path3983"
         style="fill:#ffffff;fill-opacity:1;stroke:#000000;stroke-width:1.84067595;stroke-miterlimit:4;stroke-opacity:1;stroke-dasharray:none"
         sodipodi:type="arc"
         transform="matrix(0.54327869,0,0,0.54327869,158.64152,126.58482)" />
      <path
         transform="matrix(0.54327869,0,0,0.54327869,94.749374,38.95408)"
         sodipodi:type="arc"
         style="fill:#ffffff;fill-opacity:1;stroke:#000000;stroke-width:1.84067595;stroke-miterlimit:4;stroke-opacity:1;stroke-dasharray:none"
         id="path3985"
         sodipodi:cx="264.15488"
         sodipodi:cy="179.84293"
         sodipodi:rx="11.111678"
         sodipodi:ry="11.111678"
         d="m 275.26655,179.84293 c 0,6.13681 -4.97486,11.11167 -11.11167,11.11167 -6.13681,0 -11.11168,-4.97486 -11.11168,-11.11167 0,-6.13681 4.97487,-11.11168 11.11168,-11.11168 6.13681,0 11.11167,4.97487 11.11167,11.11168 z" />
      <path
         d="m 275.26655,179.84293 c 0,6.13681 -4.97486,11.11167 -11.11167,11.11167 -6.13681,0 -11.11168,-4.97486 -11.11168,-11.11167 0,-6.13681 4.97487,-11.11168 11.11168,-11.11168 6.13681,0 11.11167,4.97487 11.11167,11.11168 z"
         sodipodi:ry="11.111678"
         sodipodi:rx="11.111678"
         sodipodi:cy="179.84293"
         sodipodi:cx="264.15488"
         id="path3987"
         style="fill:#ffffff;fill-opacity:1;stroke:#000000;stroke-width:1.84067595;stroke-miterlimit:4;stroke-opacity:1;stroke-dasharray:none"
         sodipodi:type="arc"
         transform="matrix(0.54327869,0,0,0.54327869,94.749374,100.06831)" />
      <path
         transform="matrix(0.54327869,0,0,0.54327869,192.2291,-23.170303)"
         sodipodi:type="arc"
         style="fill:#ffffff;fill-opacity:1;stroke:#000000;stroke-width:1.84067595;stroke-miterlimit:4;stroke-opacity:1;stroke-dasharray:none"
         id="path3989"
         sodipodi:cx="264.15488"
         sodipodi:cy="179.84293"
         sodipodi:rx="11.111678"
         sodipodi:ry="11.111678"
         d="m 275.26655,179.84293 c 0,6.13681 -4.97486,11.11167 -11.11167,11.11167 -6.13681,0 -11.11168,-4.97486 -11.11168,-11.11167 0,-6.13681 4.97487,-11.11168 11.11168,-11.11168 6.13681,0 11.11167,4.97487 11.11167,11.11168 z" />
    </g>
  </g>
</svg>
