<?xml version="1.0" encoding="UTF-8" standalone="no"?>
<!-- Created with Inkscape (http://www.inkscape.org/) -->

<svg
   xmlns:dc="http://purl.org/dc/elements/1.1/"
   xmlns:cc="http://creativecommons.org/ns#"
   xmlns:rdf="http://www.w3.org/1999/02/22-rdf-syntax-ns#"
   xmlns:svg="http://www.w3.org/2000/svg"
   xmlns="http://www.w3.org/2000/svg"
   xmlns:sodipodi="http://sodipodi.sourceforge.net/DTD/sodipodi-0.dtd"
   xmlns:inkscape="http://www.inkscape.org/namespaces/inkscape"
   id="svg2"
   version="1.1"
   inkscape:version="0.48.4 r9939"
   width="1037.3734"
   height="430.61969"
   xml:space="preserve"
   sodipodi:docname="smoothing.svg"><sodipodi:namedview
     pagecolor="#ffffff"
     bordercolor="#666666"
     borderopacity="1"
     objecttolerance="10"
     gridtolerance="10"
     guidetolerance="10"
     inkscape:pageopacity="0"
     inkscape:pageshadow="2"
     inkscape:window-width="1366"
     inkscape:window-height="719"
     id="namedview4"
     showgrid="false"
     inkscape:zoom="0.32905235"
     inkscape:cx="1173.5228"
     inkscape:cy="-22.934989"
     inkscape:window-x="0"
     inkscape:window-y="25"
     inkscape:window-maximized="1"
     inkscape:current-layer="g10"
     fit-margin-top="5"
     fit-margin-left="5"
     fit-margin-right="5"
     fit-margin-bottom="5" /><metadata
     id="metadata8"><rdf:RDF><cc:Work
         rdf:about=""><dc:format>image/svg+xml</dc:format><dc:type
           rdf:resource="http://purl.org/dc/dcmitype/StillImage" /><dc:title /></cc:Work></rdf:RDF></metadata><defs
     id="defs6"><marker
       style="overflow:visible"
       id="Arrow1Mend"
       refX="0"
       refY="0"
       orient="auto"
       inkscape:stockid="Arrow1Mend"><path
         transform="matrix(-0.4,0,0,-0.4,-4,0)"
         style="fill-rule:evenodd;stroke:#000000;stroke-width:1pt"
         d="M 0,0 5,-5 -12.5,0 5,5 0,0 z"
         id="path4423"
         inkscape:connector-curvature="0" /></marker><clipPath
       id="clipPath20"
       clipPathUnits="userSpaceOnUse"><path
         id="path22"
         d="m 0,0 841.68,0 0,595.44 L 0,595.44 0,0 z"
         inkscape:connector-curvature="0" /></clipPath><clipPath
       id="clipPath36"
       clipPathUnits="userSpaceOnUse"><path
         id="path38"
         d="m 46.78,37.28 708,0 0,543.76 -708,0 0,-543.76 z"
         inkscape:connector-curvature="0" /></clipPath><marker
       style="overflow:visible"
       id="Arrow1MendJ"
       refX="0"
       refY="0"
       orient="auto"
       inkscape:stockid="Arrow1MendJ"><path
         transform="matrix(-0.4,0,0,-0.4,-4,0)"
         style="fill:#b3b3b3;fill-rule:evenodd;stroke:#b3b3b3;stroke-width:1pt"
         d="M 0,0 5,-5 -12.5,0 5,5 0,0 z"
         id="path4864"
         inkscape:connector-curvature="0" /></marker><marker
       style="overflow:visible"
       id="Arrow1MendJ-9"
       refX="0"
       refY="0"
       orient="auto"
       inkscape:stockid="Arrow1MendJ"><path
         inkscape:connector-curvature="0"
         transform="matrix(-0.4,0,0,-0.4,-4,0)"
         style="fill:#b3b3b3;fill-rule:evenodd;stroke:#b3b3b3;stroke-width:1pt"
         d="M 0,0 5,-5 -12.5,0 5,5 0,0 z"
         id="path4864-3" /></marker></defs><g
     transform="matrix(1.25,0,0,-1.25,-8.9080093,727.53255)"
     inkscape:label="Rplot"
     inkscape:groupmode="layer"
     id="g10"><g
       id="g12" /><g
       id="g14" /><g
       id="g26" /><g
       id="g28" /><g
       id="g30" /><g
       id="g84" /><g
       id="g86" /><g
       id="g106" /><g
       id="g118" /><g
       id="g120" /><g
       id="g122" /><g
       id="g124" /><g
       id="g126" /><g
       id="g140" /><g
       id="g164" /><g
       id="g166" /><g
       id="g168" /><g
       id="g170" /><g
       id="g178" /><g
       id="g186" /><g
       id="g188" /><g
       id="g190" /><g
       id="g192" /><g
       id="g194" /><g
       id="g200" /><g
       id="g208" /><g
       id="g214" /><g
       id="g220" /><g
       id="g226" /><g
       id="g232" /><g
       id="g238" /><g
       id="g244" /><g
       id="g250" /><g
       id="g256" /><g
       id="g264" /><g
       id="g272" /><g
       id="g280" /><g
       id="g288" /><g
       id="g290" /><g
       id="g292" /><g
       id="g294" /><g
       id="g296" /><g
       id="g298" /><g
       id="g300" /><g
       id="g302" /><g
       id="g304" /><g
       id="g306" /><g
       id="g308" /><g
       id="g310" /><g
       id="g3409"
       transform="matrix(0.57578611,0,0,0.57578611,10.190755,234.04782)"><g
         id="g3322"><path
           inkscape:connector-curvature="0"
           id="path4228"
           style="fill:#e5e5e5;fill-opacity:1;fill-rule:nonzero;stroke:none"
           d="m 1.62817,53.280276 708,0 0,543.760004 -708,0 0,-543.760004 z" /><path
           inkscape:connector-curvature="0"
           id="path4230"
           style="fill:none;stroke:#f2f2f2;stroke-width:0.92048067;stroke-linecap:butt;stroke-linejoin:round;stroke-miterlimit:10;stroke-opacity:1;stroke-dasharray:none"
           d="m 1.62817,69.720276 708.01,0" /><path
           inkscape:connector-curvature="0"
           id="path4232"
           style="fill:none;stroke:#f2f2f2;stroke-width:0.92048067;stroke-linecap:butt;stroke-linejoin:round;stroke-miterlimit:10;stroke-opacity:1;stroke-dasharray:none"
           d="m 1.62817,220.22028 708.01,0" /><path
           inkscape:connector-curvature="0"
           id="path4234"
           style="fill:none;stroke:#f2f2f2;stroke-width:0.92048067;stroke-linecap:butt;stroke-linejoin:round;stroke-miterlimit:10;stroke-opacity:1;stroke-dasharray:none"
           d="m 1.62817,370.73028 708.01,0" /><path
           inkscape:connector-curvature="0"
           id="path4236"
           style="fill:none;stroke:#f2f2f2;stroke-width:0.92048067;stroke-linecap:butt;stroke-linejoin:round;stroke-miterlimit:10;stroke-opacity:1;stroke-dasharray:none"
           d="m 1.62817,521.23028 708.01,0" /><path
           inkscape:connector-curvature="0"
           id="path4238"
           style="fill:none;stroke:#f2f2f2;stroke-width:0.92048067;stroke-linecap:butt;stroke-linejoin:round;stroke-miterlimit:10;stroke-opacity:1;stroke-dasharray:none"
           d="m 114.26817,53.280276 0,543.760004" /><path
           inkscape:connector-curvature="0"
           id="path4240"
           style="fill:none;stroke:#f2f2f2;stroke-width:0.92048067;stroke-linecap:butt;stroke-linejoin:round;stroke-miterlimit:10;stroke-opacity:1;stroke-dasharray:none"
           d="m 275.17817,53.280276 0,543.760004" /><path
           inkscape:connector-curvature="0"
           id="path4242"
           style="fill:none;stroke:#f2f2f2;stroke-width:0.92048067;stroke-linecap:butt;stroke-linejoin:round;stroke-miterlimit:10;stroke-opacity:1;stroke-dasharray:none"
           d="m 436.08817,53.280276 0,543.760004" /><path
           inkscape:connector-curvature="0"
           id="path4244"
           style="fill:none;stroke:#f2f2f2;stroke-width:0.92048067;stroke-linecap:butt;stroke-linejoin:round;stroke-miterlimit:10;stroke-opacity:1;stroke-dasharray:none"
           d="m 596.99817,53.280276 0,543.760004" /><path
           inkscape:connector-curvature="0"
           id="path4246"
           style="fill:none;stroke:#ffffff;stroke-width:1.84096134;stroke-linecap:butt;stroke-linejoin:round;stroke-miterlimit:10;stroke-opacity:1;stroke-dasharray:none"
           d="m 1.62817,144.97028 708.01,0" /><path
           inkscape:connector-curvature="0"
           id="path4248"
           style="fill:none;stroke:#ffffff;stroke-width:1.84096134;stroke-linecap:butt;stroke-linejoin:round;stroke-miterlimit:10;stroke-opacity:1;stroke-dasharray:none"
           d="m 1.62817,295.48028 708.01,0" /><path
           inkscape:connector-curvature="0"
           id="path4250"
           style="fill:none;stroke:#ffffff;stroke-width:1.84096134;stroke-linecap:butt;stroke-linejoin:round;stroke-miterlimit:10;stroke-opacity:1;stroke-dasharray:none"
           d="m 1.62817,445.98028 708.01,0" /><path
           inkscape:connector-curvature="0"
           id="path4252"
           style="fill:none;stroke:#ffffff;stroke-width:1.84096134;stroke-linecap:butt;stroke-linejoin:round;stroke-miterlimit:10;stroke-opacity:1;stroke-dasharray:none"
           d="m 1.62817,596.49028 708.01,0" /><path
           inkscape:connector-curvature="0"
           id="path4254"
           style="fill:none;stroke:#ffffff;stroke-width:1.84096134;stroke-linecap:butt;stroke-linejoin:round;stroke-miterlimit:10;stroke-opacity:1;stroke-dasharray:none"
           d="m 33.80817,53.280276 0,543.760004" /><path
           inkscape:connector-curvature="0"
           id="path4256"
           style="fill:none;stroke:#ffffff;stroke-width:1.84096134;stroke-linecap:butt;stroke-linejoin:round;stroke-miterlimit:10;stroke-opacity:1;stroke-dasharray:none"
           d="m 194.71817,53.280276 0,543.760004" /><path
           inkscape:connector-curvature="0"
           id="path4258"
           style="fill:none;stroke:#ffffff;stroke-width:1.84096134;stroke-linecap:butt;stroke-linejoin:round;stroke-miterlimit:10;stroke-opacity:1;stroke-dasharray:none"
           d="m 355.62817,53.280276 0,543.760004" /><path
           inkscape:connector-curvature="0"
           id="path4260"
           style="fill:none;stroke:#ffffff;stroke-width:1.84096134;stroke-linecap:butt;stroke-linejoin:round;stroke-miterlimit:10;stroke-opacity:1;stroke-dasharray:none"
           d="m 516.53817,53.280276 0,543.760004" /><path
           inkscape:connector-curvature="0"
           id="path4262"
           style="fill:none;stroke:#ffffff;stroke-width:1.84096134;stroke-linecap:butt;stroke-linejoin:round;stroke-miterlimit:10;stroke-opacity:1;stroke-dasharray:none"
           d="m 677.44817,53.280276 0,543.760004" /><path
           inkscape:connector-curvature="0"
           id="path4264"
           style="fill:none;stroke:#808080;stroke-width:1.84096134;stroke-linecap:butt;stroke-linejoin:round;stroke-miterlimit:1;stroke-opacity:1;stroke-dasharray:7.36384517, 7.36384517;stroke-dashoffset:0"
           d="m 33.80817,445.98028 1.61,-0.5 1.61,0.12 1.61,0.7 1.61,1.24 1.61,1.73 1.61,2.17 1.61,2.54 1.61,2.87 1.61,3.12 1.61,3.3 1.6,3.44 1.61,3.48 1.61,3.47 1.61,3.38 1.61,3.23 1.61,3.01 1.61,2.73 1.61,2.39 1.61,1.99 1.61,1.53 1.61,1.04 1.6,0.49 1.61,-0.1 1.61,-0.7 1.61,-1.34 1.61,-2 1.61,-2.67 1.61,-3.34 1.61,-4.01 1.61,-4.67 1.61,-5.32 1.61,-5.95 1.6,-6.54 1.61,-7.1 1.61,-7.62 1.61,-8.09 1.61,-8.52 1.61,-8.88 1.61,-9.19 1.61,-9.44 1.61,-9.62 1.61,-9.73 1.61,-9.78 1.61,-9.76 1.6,-9.66 1.61,-9.5 1.61,-9.27 1.61,-8.98 1.61,-8.63 1.61,-8.21 1.61,-7.75 1.61,-7.23 1.61,-6.66 1.61,-6.06 1.61,-5.43 1.6,-4.76 1.61,-4.07 1.61,-3.37 1.61,-2.67 1.61,-1.95 1.61,-1.26 1.61,-0.56 1.61,0.11 1.61,0.75 1.61,1.36 1.61,1.94 1.6,2.47 1.61,2.95 1.61,3.38 1.61,3.74 1.61,4.06 1.61,4.3 1.61,4.48 1.61,4.59 1.61,4.63 1.61,4.6 1.61,4.51 1.6,4.34 1.61,4.11 1.61,3.82 1.61,3.47 1.61,3.06 1.61,2.6 1.61,2.09 1.61,1.54 1.61,0.95 1.61,0.33 1.61,-0.31 1.6,-0.96 1.61,-1.64 1.61,-2.31 1.61,-2.98 1.61,-3.64 1.61,-4.28 1.61,-4.9 1.61,-5.49 1.61,-6.05 1.61,-6.56 1.61,-7.02 1.6,-7.44 1.61,-7.8 1.61,-8.09 1.61,-8.33 1.61,-8.5 1.61,-8.6 1.61,-8.64 1.61,-8.59 1.61,-8.5 1.61,-8.32 1.61,-8.09 1.6,-7.78 1.61,-7.42 1.61,-6.99 1.61,-6.52 1.61,-5.99 1.61,-5.42 1.61,-4.81 1.61,-4.17 1.61,-3.5 1.61,-2.82 1.61,-2.11 1.6,-1.4 1.61,-0.69 1.61,0 1.61,0.7 1.61,1.36 1.61,2 1.61,2.61 1.61,3.18 1.61,3.69 1.61,4.17 1.61,4.59 1.6,4.95 1.61,5.24 1.61,5.48 1.61,5.65 1.61,5.74 1.61,5.78 1.61,5.73 1.61,5.63 1.61,5.45 1.61,5.22 1.61,4.91 1.61,4.54 1.6,4.13 1.61,3.66 1.61,3.14 1.61,2.59 1.61,1.99 1.61,1.38 1.61,0.72 1.61,0.07 1.61,-0.61 1.61,-1.28 1.61,-1.94 1.6,-2.61 1.61,-3.24 1.61,-3.86 1.61,-4.44 1.61,-4.99 1.61,-5.5 1.61,-5.95 1.61,-6.36 1.61,-6.71 1.61,-6.99 1.61,-7.22 1.6,-7.38 1.61,-7.47 1.61,-7.49 1.61,-7.44 1.61,-7.33 1.61,-7.14 1.61,-6.89 1.61,-6.58 1.61,-6.21 1.61,-5.77 1.61,-5.290004 1.6,-4.76 1.61,-4.17 1.61,-3.57 1.61,-2.91 1.61,-2.24 1.61,-1.56 1.61,-0.84 1.61,-0.14 1.61,0.57 1.61,1.27 1.61,1.95 1.6,2.62 1.61,3.25 1.61,3.85 1.61,4.41 1.61,4.920004 1.61,5.39 1.61,5.8 1.61,6.14 1.61,6.44 1.61,6.65 1.61,6.81 1.6,6.9 1.61,6.92 1.61,6.86 1.61,6.75 1.61,6.56 1.61,6.31 1.61,6 1.61,5.62 1.61,5.2 1.61,4.72 1.61,4.2 1.6,3.63 1.61,3.03 1.61,2.41 1.61,1.76 1.61,1.1 1.61,0.43 1.61,-0.25 1.61,-0.91 1.61,-1.57 1.61,-2.21 1.61,-2.81 1.6,-3.4 1.61,-3.93 1.61,-4.44 1.61,-4.88 1.61,-5.27 1.61,-5.62 1.61,-5.89 1.61,-6.11 1.61,-6.25 1.61,-6.33 1.61,-6.34 1.61,-6.29 1.6,-6.16 1.61,-5.96 1.61,-5.7 1.61,-5.38 1.61,-4.99 1.61,-4.55 1.61,-4.06 1.61,-3.51 1.61,-2.94 1.61,-2.310004 1.61,-1.66 1.6,-0.98 1.61,-0.29 1.61,0.41 1.61,1.13 1.61,1.83 1.61,2.530004 1.61,3.21 1.61,3.87 1.61,4.5 1.61,5.09 1.61,5.64 1.6,6.15 1.61,6.61 1.61,7 1.61,7.34 1.61,7.62 1.61,7.83 1.61,7.98 1.61,8.05 1.61,8.06 1.61,7.99 1.61,7.87 1.6,7.67 1.61,7.4 1.61,7.08 1.61,6.7 1.61,6.27 1.61,5.78 1.61,5.25 1.61,4.67 1.61,4.08 1.61,3.44 1.61,2.8 1.6,2.13 1.61,1.45 1.61,0.79 1.61,0.12 1.61,-0.54 1.61,-1.16 1.61,-1.77 1.61,-2.35 1.61,-2.88 1.61,-3.36 1.61,-3.81 1.6,-4.19 1.61,-4.53 1.61,-4.78 1.61,-4.99 1.61,-5.13 1.61,-5.2 1.61,-5.19 1.61,-5.12 1.61,-4.99 1.61,-4.78 1.61,-4.5 1.6,-4.18 1.61,-3.77 1.61,-3.33 1.61,-2.83 1.61,-2.27 1.61,-1.69 1.61,-1.06 1.61,-0.4 1.61,0.27 1.61,0.97 1.61,1.68 1.6,2.39 1.61,3.1 1.61,3.78 1.61,4.47 1.61,5.12 1.61,5.75 1.61,6.33 1.61,6.87 1.61,7.38 1.61,7.82 1.61,8.21 1.6,8.54 1.61,8.8 1.61,9 1.61,9.14 1.61,9.2 1.61,9.2 1.61,9.12 1.61,8.98 1.61,8.77 1.61,8.5 1.61,8.17 1.61,7.77 1.6,7.33 1.61,6.84 1.61,6.3 1.61,5.72 1.61,5.12 1.61,4.48 1.61,3.82 1.61,3.17 1.61,2.48 1.61,1.82 1.61,1.15 1.6,0.5 1.61,-0.12 1.61,-0.73 1.61,-1.29 1.61,-1.82 1.61,-2.3 1.61,-2.73 1.61,-3.11 1.61,-3.43 1.61,-3.68 1.61,-3.88 1.6,-3.99 1.61,-4.06 1.61,-4.04 1.61,-3.96 1.61,-3.81 1.61,-3.6 1.61,-3.31 1.61,-2.96 1.61,-2.57 1.61,-2.1 1.61,-1.59 1.6,-1.04 1.61,-0.44 1.61,0.2 1.61,0.85 1.61,1.54 1.61,2.23 1.61,2.94 1.61,3.65 1.61,4.36 1.61,5.05 1.61,5.72 1.6,6.37 1.61,6.99 1.61,7.57 1.61,8.11 1.61,8.6 1.61,9.03 1.61,9.42 1.61,9.73 1.61,9.98 1.61,10.18 1.61,10.29 1.6,10.35 1.61,10.34 1.61,10.24 1.61,10.1 1.61,9.87 1.61,9.59 1.61,9.25 1.61,8.85 1.61,8.39 1.61,7.9 1.61,7.35 1.6,6.76" /><path
           inkscape:connector-curvature="0"
           id="path4268"
           style="fill:none;stroke:#808080;stroke-width:4.1682148;stroke-linecap:butt;stroke-linejoin:round;stroke-miterlimit:1;stroke-opacity:1;stroke-dasharray:none"
           d="m 33.80817,445.98028 1.61,-2.99 1.61,-2.99 1.61,-2.96 1.61,-2.95 1.61,-2.93 1.61,-2.91 1.61,-2.9 1.61,-2.89 1.61,-2.87 1.61,-2.85 1.6,-2.84 1.61,-2.82 1.61,-2.81 1.61,-2.79 1.61,-2.78 1.61,-2.76 1.61,-2.75 1.61,-2.74 1.61,-2.72 1.61,-2.7 1.61,-2.7 1.6,-2.68 1.61,-2.66 1.61,-2.65 1.61,-2.64 1.61,-2.63 1.61,-2.61 1.61,-2.6 1.61,-2.58 1.61,-2.57 1.61,-2.56 1.61,-2.54 1.6,-2.53 1.61,-2.52 1.61,-2.5 1.61,-2.49 1.61,-2.48 1.61,-2.46 1.61,-2.44 1.61,-2.43 1.61,-2.42 1.61,-2.4 1.61,-2.39 1.61,-2.37 1.6,-2.36 1.61,-2.34 1.61,-2.33 1.61,-2.31 1.61,-2.29 1.61,-2.28 1.61,-2.26 1.61,-2.25 1.61,-2.23 1.61,-2.21 1.61,-2.2 1.6,-2.18 1.61,-2.17 1.61,-2.14 1.61,-2.14 1.61,-2.11 1.61,-2.1 1.61,-2.08 1.61,-2.06 1.61,-2.05 1.61,-2.03 1.61,-2.02 1.6,-2 1.61,-1.98 1.61,-1.97 1.61,-1.95 1.61,-1.93 1.61,-1.92 1.61,-1.91 1.61,-1.89 1.61,-1.87 1.61,-1.86 1.61,-1.84 1.6,-1.83 1.61,-1.82 1.61,-1.8 1.61,-1.78 1.61,-1.78 1.61,-1.75 1.61,-1.75 1.61,-1.73 1.61,-1.72 1.61,-1.7 1.61,-1.69 1.6,-1.68 1.61,-1.66 1.61,-1.65 1.61,-1.64 1.61,-1.62 1.61,-1.61 1.61,-1.59 1.61,-1.58 1.61,-1.57 1.61,-1.56 1.61,-1.54 1.6,-1.52 1.61,-1.52 1.61,-1.49 1.61,-1.49 1.61,-1.46 1.61,-1.46 1.61,-1.44 1.61,-1.42 1.61,-1.41 1.61,-1.39 1.61,-1.38 1.6,-1.36 1.61,-1.35 1.61,-1.33 1.61,-1.31 1.61,-1.3 1.61,-1.28 1.61,-1.27 1.61,-1.24 1.61,-1.24 1.61,-1.21 1.61,-1.2 1.6,-1.18 1.61,-1.17 1.61,-1.15 1.61,-1.13 1.61,-1.11 1.61,-1.1 1.61,-1.08 1.61,-1.07 1.61,-1.05 1.61,-1.04 1.61,-1.01 1.6,-1.01 1.61,-0.98 1.61,-0.97 1.61,-0.96 1.61,-0.94 1.61,-0.92 1.61,-0.91 1.61,-0.9 1.61,-0.88 1.61,-0.87 1.61,-0.85 1.61,-0.84 1.6,-0.82 1.61,-0.81 1.61,-0.8 1.61,-0.78 1.61,-0.77 1.61,-0.75 1.61,-0.75 1.61,-0.72 1.61,-0.72 1.61,-0.7 1.61,-0.69 1.6,-0.67 1.61,-0.66 1.61,-0.65 1.61,-0.63 1.61,-0.62 1.61,-0.61 1.61,-0.59 1.61,-0.58 1.61,-0.56 1.61,-0.55 1.61,-0.53 1.6,-0.52 1.61,-0.51 1.61,-0.49 1.61,-0.47 1.61,-0.46 1.61,-0.45 1.61,-0.43 1.61,-0.41 1.61,-0.4 1.61,-0.38 1.61,-0.36 1.6,-0.35 1.61,-0.34 1.61,-0.31 1.61,-0.3 1.61,-0.28 1.61,-0.27 1.61,-0.25 1.61,-0.23 1.61,-0.22 1.61,-0.2 1.61,-0.18 1.6,-0.17 1.61,-0.15 1.61,-0.13 1.61,-0.12 1.61,-0.1 1.61,-0.09 1.61,-0.07 1.61,-0.05 1.61,-0.04 1.61,-0.02 1.61,-0.01 1.6,0.01 1.61,0.02 1.61,0.04 1.61,0.06 1.61,0.06 1.61,0.09 1.61,0.09 1.61,0.11 1.61,0.13 1.61,0.14 1.61,0.15 1.6,0.16 1.61,0.18 1.61,0.2 1.61,0.2 1.61,0.22 1.61,0.24 1.61,0.24 1.61,0.27 1.61,0.27 1.61,0.29 1.61,0.3 1.6,0.31 1.61,0.33 1.61,0.35 1.61,0.35 1.61,0.37 1.61,0.39 1.61,0.4 1.61,0.41 1.61,0.43 1.61,0.44 1.61,0.46 1.61,0.48 1.6,0.48 1.61,0.51 1.61,0.52 1.61,0.53 1.61,0.56 1.61,0.56 1.61,0.59 1.61,0.6 1.61,0.61 1.61,0.64 1.61,0.65 1.6,0.66 1.61,0.69 1.61,0.69 1.61,0.72 1.61,0.73 1.61,0.75 1.61,0.77 1.61,0.78 1.61,0.8 1.61,0.81 1.61,0.83 1.6,0.85 1.61,0.87 1.61,0.88 1.61,0.89 1.61,0.91 1.61,0.93 1.61,0.94 1.61,0.96 1.61,0.97 1.61,0.99 1.61,1 1.6,1.01 1.61,1.03 1.61,1.05 1.61,1.06 1.61,1.07 1.61,1.09 1.61,1.1 1.61,1.11 1.61,1.13 1.61,1.14 1.61,1.16 1.6,1.17 1.61,1.18 1.61,1.19 1.61,1.21 1.61,1.22 1.61,1.24 1.61,1.25 1.61,1.26 1.61,1.28 1.61,1.29 1.61,1.31 1.6,1.32 1.61,1.33 1.61,1.35 1.61,1.36 1.61,1.38 1.61,1.39 1.61,1.41 1.61,1.42 1.61,1.44 1.61,1.45 1.61,1.47 1.6,1.48 1.61,1.5 1.61,1.52 1.61,1.53 1.61,1.55 1.61,1.57 1.61,1.58 1.61,1.6 1.61,1.61 1.61,1.63 1.61,1.65 1.6,1.67 1.61,1.68 1.61,1.7 1.61,1.71 1.61,1.73 1.61,1.75 1.61,1.76 1.61,1.78 1.61,1.8 1.61,1.81 1.61,1.83 1.6,1.84 1.61,1.86 1.61,1.88 1.61,1.89 1.61,1.91 1.61,1.92 1.61,1.93 1.61,1.95 1.61,1.97 1.61,1.98 1.61,1.99 1.61,2.01 1.6,2.02 1.61,2.03 1.61,2.05 1.61,2.06 1.61,2.08 1.61,2.09 1.61,2.1 1.61,2.12 1.61,2.13 1.61,2.15 1.61,2.15 1.6,2.17 1.61,2.19 1.61,2.2 1.61,2.21 1.61,2.22 1.61,2.24 1.61,2.26 1.61,2.27 1.61,2.28 1.61,2.29 1.61,2.32 1.6,2.32 1.61,2.34 1.61,2.36 1.61,2.37 1.61,2.39 1.61,2.4 1.61,2.41 1.61,2.44 1.61,2.45 1.61,2.46 1.61,2.48 1.6,2.5 1.61,2.52 1.61,2.53 1.61,2.54 1.61,2.57 1.61,2.58 1.61,2.6 1.61,2.61 1.61,2.63 1.61,2.65 1.61,2.66 1.6,2.68 1.61,2.7 1.61,2.71 1.61,2.73 1.61,2.74 1.61,2.76 1.61,2.78 1.61,2.79 1.61,2.81 1.61,2.83 1.61,2.83 1.6,2.86 1.61,2.87 1.61,2.88 1.61,2.9 1.61,2.91 1.61,2.93 1.61,2.94 1.61,2.96 1.61,2.97 1.61,2.98 1.61,3 1.6,3.01" /><path
           sodipodi:type="arc"
           style="fill:#808080;fill-opacity:1;stroke:#999999;stroke-width:2.38803959;stroke-linecap:round;stroke-linejoin:round;stroke-miterlimit:1;stroke-opacity:1;stroke-dasharray:none;stroke-dashoffset:0"
           id="path4272"
           sodipodi:cx="-580.9679"
           sodipodi:cy="600.11432"
           sodipodi:rx="6.8397932"
           sodipodi:ry="6.8397932"
           d="m -574.1281,600.11432 c 0,3.77751 -3.06228,6.83979 -6.8398,6.83979 -3.77751,0 -6.83979,-3.06228 -6.83979,-6.83979 0,-3.77751 3.06228,-6.83979 6.83979,-6.83979 3.77752,0 6.8398,3.06228 6.8398,6.83979 z"
           transform="matrix(0.58181819,0,0,-0.58181819,694.36032,493.97245)" /><text
           xml:space="preserve"
           style="font-size:13.82771587px;font-style:normal;font-variant:normal;font-weight:normal;font-stretch:normal;text-align:start;line-height:125%;letter-spacing:0px;word-spacing:0px;writing-mode:lr-tb;text-anchor:start;fill:#000000;fill-opacity:1;stroke:none;font-family:EHUSerif;-inkscape-font-specification:EHUSerif"
           x="91.040718"
           y="-475.64499"
           id="text4276"
           sodipodi:linespacing="125%"
           transform="scale(1,-1)"><tspan
             sodipodi:role="line"
             id="tspan4278"
             x="91.040718"
             y="-475.64499">Helburu funtzio</tspan><tspan
             sodipodi:role="line"
             x="91.040718"
             y="-458.36035"
             id="tspan4280">originala</tspan></text>
<text
           transform="scale(1,-1)"
           sodipodi:linespacing="125%"
           id="text4282"
           y="-272.10312"
           x="577.85278"
           style="font-size:13.82771587px;font-style:normal;font-variant:normal;font-weight:normal;font-stretch:normal;text-align:start;line-height:125%;letter-spacing:0px;word-spacing:0px;writing-mode:lr-tb;text-anchor:start;fill:#000000;fill-opacity:1;stroke:none;font-family:EHUSerif;-inkscape-font-specification:EHUSerif"
           xml:space="preserve"><tspan
             id="tspan4286"
             y="-272.10312"
             x="577.85278"
             sodipodi:role="line">Helburu funtzio</tspan><tspan
             y="-254.81848"
             x="577.85278"
             sodipodi:role="line"
             id="tspan4290">leundua</tspan></text>
<text
           transform="scale(1,-1)"
           sodipodi:linespacing="125%"
           id="text4388"
           y="-355.8121"
           x="11.209113"
           style="font-size:13.82771587px;font-style:normal;font-variant:normal;font-weight:normal;font-stretch:normal;text-align:start;line-height:125%;letter-spacing:0px;word-spacing:0px;writing-mode:lr-tb;text-anchor:start;fill:#000000;fill-opacity:1;stroke:none;font-family:EHUSerif;-inkscape-font-specification:EHUSerif"
           xml:space="preserve"><tspan
             id="tspan4392"
             y="-355.8121"
             x="11.209113"
             sodipodi:role="line">Hasierako</tspan><tspan
             id="tspan4396"
             y="-338.52747"
             x="11.209113"
             sodipodi:role="line">soluzioa</tspan></text>
<text
           xml:space="preserve"
           style="font-size:13.82771587px;font-style:normal;font-variant:normal;font-weight:normal;font-stretch:normal;text-align:start;line-height:125%;letter-spacing:0px;word-spacing:0px;writing-mode:lr-tb;text-anchor:start;fill:#000000;fill-opacity:1;stroke:none;font-family:EHUSerif;-inkscape-font-specification:EHUSerif"
           x="357.203"
           y="-130.6767"
           id="text4398"
           sodipodi:linespacing="125%"
           transform="scale(1,-1)"><tspan
             sodipodi:role="line"
             x="357.203"
             y="-130.6767"
             id="tspan4402">Optimo</tspan><tspan
             id="tspan4406"
             sodipodi:role="line"
             x="357.203"
             y="-113.39205">lokala</tspan></text>
<path
           inkscape:connector-curvature="0"
           id="path4408"
           d="m 81.38064,371.37807 c 163.33831,0.0468 227.77934,-112.80025 272.40102,-221.50841"
           style="fill:none;stroke:#b3b3b3;stroke-width:2.77880979;stroke-linecap:butt;stroke-linejoin:miter;stroke-miterlimit:4;stroke-opacity:1;stroke-dasharray:none;marker-end:url(#Arrow1MendJ)"
           sodipodi:nodetypes="cc" /><path
           transform="matrix(0.58181819,0,0,-0.58181819,415.3504,719.94704)"
           d="m -574.1281,600.11432 c 0,3.77751 -3.06228,6.83979 -6.8398,6.83979 -3.77751,0 -6.83979,-3.06228 -6.83979,-6.83979 0,-3.77751 3.06228,-6.83979 6.83979,-6.83979 3.77752,0 6.8398,3.06228 6.8398,6.83979 z"
           sodipodi:ry="6.8397932"
           sodipodi:rx="6.8397932"
           sodipodi:cy="600.11432"
           sodipodi:cx="-580.9679"
           id="path4386"
           style="fill:#808080;fill-opacity:1;stroke:#999999;stroke-width:2.38803959;stroke-linecap:round;stroke-linejoin:round;stroke-miterlimit:1;stroke-opacity:1;stroke-dasharray:none;stroke-dashoffset:0"
           sodipodi:type="arc" /><text
           xml:space="preserve"
           style="font-size:13.82771587px;font-style:normal;font-variant:normal;font-weight:normal;font-stretch:normal;text-align:start;line-height:125%;letter-spacing:0px;word-spacing:0px;writing-mode:lr-tb;text-anchor:start;fill:#000000;fill-opacity:1;stroke:none;font-family:EHUSerif;-inkscape-font-specification:EHUSerif"
           x="264.69257"
           y="-303.29761"
           id="text5169"
           sodipodi:linespacing="125%"
           transform="scale(1,-1)"><tspan
             sodipodi:role="line"
             x="264.69257"
             y="-303.29761"
             id="tspan5177">Bilaketa lokala</tspan></text>
</g><g
         transform="translate(0,-1.875961)"
         id="g3361"><path
           d="m 721.05953,55.156238 707.99997,0 0,543.760002 -707.99997,0 0,-543.760002 z"
           style="fill:#e5e5e5;fill-opacity:1;fill-rule:nonzero;stroke:none"
           id="path4326"
           inkscape:connector-curvature="0" /><path
           d="m 721.05953,71.596238 708.00997,0"
           style="fill:none;stroke:#f2f2f2;stroke-width:0.92048067;stroke-linecap:butt;stroke-linejoin:round;stroke-miterlimit:10;stroke-opacity:1;stroke-dasharray:none"
           id="path4328"
           inkscape:connector-curvature="0" /><path
           d="m 721.05953,222.09624 708.00997,0"
           style="fill:none;stroke:#f2f2f2;stroke-width:0.92048067;stroke-linecap:butt;stroke-linejoin:round;stroke-miterlimit:10;stroke-opacity:1;stroke-dasharray:none"
           id="path4330"
           inkscape:connector-curvature="0" /><path
           d="m 721.05953,372.60624 708.00997,0"
           style="fill:none;stroke:#f2f2f2;stroke-width:0.92048067;stroke-linecap:butt;stroke-linejoin:round;stroke-miterlimit:10;stroke-opacity:1;stroke-dasharray:none"
           id="path4332"
           inkscape:connector-curvature="0" /><path
           d="m 721.05953,523.10624 708.00997,0"
           style="fill:none;stroke:#f2f2f2;stroke-width:0.92048067;stroke-linecap:butt;stroke-linejoin:round;stroke-miterlimit:10;stroke-opacity:1;stroke-dasharray:none"
           id="path4334"
           inkscape:connector-curvature="0" /><path
           d="m 833.69953,55.156238 0,543.760002"
           style="fill:none;stroke:#f2f2f2;stroke-width:0.92048067;stroke-linecap:butt;stroke-linejoin:round;stroke-miterlimit:10;stroke-opacity:1;stroke-dasharray:none"
           id="path4336"
           inkscape:connector-curvature="0" /><path
           d="m 994.60953,55.156238 0,543.760002"
           style="fill:none;stroke:#f2f2f2;stroke-width:0.92048067;stroke-linecap:butt;stroke-linejoin:round;stroke-miterlimit:10;stroke-opacity:1;stroke-dasharray:none"
           id="path4338"
           inkscape:connector-curvature="0" /><path
           d="m 1155.5195,55.156238 0,543.760002"
           style="fill:none;stroke:#f2f2f2;stroke-width:0.92048067;stroke-linecap:butt;stroke-linejoin:round;stroke-miterlimit:10;stroke-opacity:1;stroke-dasharray:none"
           id="path4340"
           inkscape:connector-curvature="0" /><path
           d="m 1316.4295,55.156238 0,543.760002"
           style="fill:none;stroke:#f2f2f2;stroke-width:0.92048067;stroke-linecap:butt;stroke-linejoin:round;stroke-miterlimit:10;stroke-opacity:1;stroke-dasharray:none"
           id="path4342"
           inkscape:connector-curvature="0" /><path
           d="m 721.05953,146.84624 708.00997,0"
           style="fill:none;stroke:#ffffff;stroke-width:1.84096134;stroke-linecap:butt;stroke-linejoin:round;stroke-miterlimit:10;stroke-opacity:1;stroke-dasharray:none"
           id="path4344"
           inkscape:connector-curvature="0" /><path
           d="m 721.05953,297.35624 708.00997,0"
           style="fill:none;stroke:#ffffff;stroke-width:1.84096134;stroke-linecap:butt;stroke-linejoin:round;stroke-miterlimit:10;stroke-opacity:1;stroke-dasharray:none"
           id="path4346"
           inkscape:connector-curvature="0" /><path
           d="m 721.05953,447.85624 708.00997,0"
           style="fill:none;stroke:#ffffff;stroke-width:1.84096134;stroke-linecap:butt;stroke-linejoin:round;stroke-miterlimit:10;stroke-opacity:1;stroke-dasharray:none"
           id="path4348"
           inkscape:connector-curvature="0" /><path
           d="m 721.05953,598.36624 708.00997,0"
           style="fill:none;stroke:#ffffff;stroke-width:1.84096134;stroke-linecap:butt;stroke-linejoin:round;stroke-miterlimit:10;stroke-opacity:1;stroke-dasharray:none"
           id="path4350"
           inkscape:connector-curvature="0" /><path
           d="m 753.23953,55.156238 0,543.760002"
           style="fill:none;stroke:#ffffff;stroke-width:1.84096134;stroke-linecap:butt;stroke-linejoin:round;stroke-miterlimit:10;stroke-opacity:1;stroke-dasharray:none"
           id="path4352"
           inkscape:connector-curvature="0" /><path
           d="m 914.14953,55.156238 0,543.760002"
           style="fill:none;stroke:#ffffff;stroke-width:1.84096134;stroke-linecap:butt;stroke-linejoin:round;stroke-miterlimit:10;stroke-opacity:1;stroke-dasharray:none"
           id="path4354"
           inkscape:connector-curvature="0" /><path
           d="m 1075.0595,55.156238 0,543.760002"
           style="fill:none;stroke:#ffffff;stroke-width:1.84096134;stroke-linecap:butt;stroke-linejoin:round;stroke-miterlimit:10;stroke-opacity:1;stroke-dasharray:none"
           id="path4356"
           inkscape:connector-curvature="0" /><path
           d="m 1235.9695,55.156238 0,543.760002"
           style="fill:none;stroke:#ffffff;stroke-width:1.84096134;stroke-linecap:butt;stroke-linejoin:round;stroke-miterlimit:10;stroke-opacity:1;stroke-dasharray:none"
           id="path4358"
           inkscape:connector-curvature="0" /><path
           d="m 1396.8795,55.156238 0,543.760002"
           style="fill:none;stroke:#ffffff;stroke-width:1.84096134;stroke-linecap:butt;stroke-linejoin:round;stroke-miterlimit:10;stroke-opacity:1;stroke-dasharray:none"
           id="path4360"
           inkscape:connector-curvature="0" /><path
           d="m 753.23953,447.85624 1.61,-0.5 1.61,0.12 1.61,0.7 1.61,1.24 1.61,1.73 1.61,2.17 1.61,2.54 1.61,2.87 1.61,3.12 1.61,3.3 1.6,3.44 1.61,3.48 1.61,3.47 1.61,3.38 1.61,3.23 1.61,3.01 1.61,2.73 1.61,2.39 1.61,1.99 1.61,1.53 1.61,1.04 1.6,0.49 1.61,-0.1 1.61,-0.7 1.61,-1.34 1.61,-2 1.61,-2.67 1.61,-3.34 1.61,-4.01 1.61,-4.67 1.61,-5.32 1.61,-5.95 1.6,-6.54 1.61,-7.1 1.61,-7.62 1.61,-8.09 1.61,-8.52 1.61,-8.88 1.61,-9.19 1.61,-9.44 1.61,-9.62 1.61,-9.73 1.61,-9.78 1.61,-9.76 1.6,-9.66 1.61,-9.5 1.61,-9.27 1.61,-8.98 1.61,-8.63 1.61,-8.21 1.61,-7.75 1.61,-7.23 1.61,-6.66 1.61,-6.06 1.61,-5.43 1.6,-4.76 1.61,-4.07 1.61,-3.37 1.61,-2.67 1.61,-1.95 1.61,-1.26 1.61,-0.56 1.61,0.11 1.61,0.75 1.61,1.36 1.61,1.94 1.6,2.47 1.61,2.95 1.61,3.38 1.61,3.74 1.61,4.06 1.61,4.3 1.61,4.48 1.61,4.59 1.61,4.63 1.61,4.6 1.61,4.51 1.6,4.34 1.61,4.11 1.61,3.82 1.61,3.47 1.61,3.06 1.61,2.6 1.61,2.09 1.61,1.54 1.61,0.95 1.61,0.33 1.61,-0.31 1.6,-0.96 1.61,-1.64 1.61,-2.31 1.61,-2.98 1.61,-3.64 1.61,-4.28 1.61,-4.9 1.61,-5.49 1.61,-6.05 1.61,-6.56 1.61,-7.02 1.6,-7.44 1.61,-7.8 1.61,-8.09 1.61,-8.33 1.61,-8.5 1.61,-8.6 1.61,-8.64 1.61,-8.59 1.61,-8.5 1.61,-8.32 1.61,-8.09 1.6,-7.78 1.61,-7.42 1.61,-6.99 1.61,-6.52 1.61,-5.99 1.61,-5.42 1.61,-4.81 1.61,-4.17 1.61,-3.5 1.61,-2.82 1.61,-2.11 1.6,-1.4 1.61,-0.69 1.61,0 1.61,0.7 1.61,1.36 1.61,2 1.61,2.61 1.61,3.18 1.61,3.69 1.61,4.17 1.61,4.59 1.6,4.95 1.61,5.24 1.61,5.48 1.61,5.65 1.61,5.74 1.61,5.78 1.61,5.73 1.61,5.63 1.61,5.45 1.61,5.22 1.61,4.91 1.61,4.54 1.6,4.13 1.61,3.66 1.61,3.14 1.61,2.59 1.61,1.99 1.61,1.38 1.61,0.72 1.61,0.07 1.61,-0.61 1.60997,-1.28 1.61,-1.94 1.6,-2.61 1.61,-3.24 1.61,-3.86 1.61,-4.44 1.61,-4.99 1.61,-5.5 1.61,-5.95 1.61,-6.36 1.61,-6.71 1.61,-6.99 1.61,-7.22 1.6,-7.38 1.61,-7.47 1.61,-7.49 1.61,-7.44 1.61,-7.33 1.61,-7.14 1.61,-6.89 1.61,-6.58 1.61,-6.21 1.61,-5.77 1.61,-5.29 1.6,-4.760002 1.61,-4.17 1.61,-3.57 1.61,-2.91 1.61,-2.24 1.61,-1.56 1.61,-0.84 1.61,-0.14 1.61,0.57 1.61,1.27 1.61,1.95 1.6,2.62 1.61,3.25 1.61,3.85 1.61,4.41 1.61,4.920002 1.61,5.39 1.61,5.8 1.61,6.14 1.61,6.44 1.61,6.65 1.61,6.81 1.6,6.9 1.61,6.92 1.61,6.86 1.61,6.75 1.61,6.56 1.61,6.31 1.61,6 1.61,5.62 1.61,5.2 1.61,4.72 1.61,4.2 1.6,3.63 1.61,3.03 1.61,2.41 1.61,1.76 1.61,1.1 1.61,0.43 1.61,-0.25 1.61,-0.91 1.61,-1.57 1.61,-2.21 1.61,-2.81 1.6,-3.4 1.61,-3.93 1.61,-4.44 1.61,-4.88 1.61,-5.27 1.61,-5.62 1.61,-5.89 1.61,-6.11 1.61,-6.25 1.61,-6.33 1.61,-6.34 1.61,-6.29 1.6,-6.16 1.61,-5.96 1.61,-5.7 1.61,-5.38 1.61,-4.99 1.61,-4.55 1.61,-4.06 1.61,-3.51 1.61,-2.94 1.61,-2.31 1.61,-1.660002 1.6,-0.98 1.61,-0.29 1.61,0.41 1.61,1.13 1.61,1.830002 1.61,2.53 1.61,3.21 1.61,3.87 1.61,4.5 1.61,5.09 1.61,5.64 1.6,6.15 1.61,6.61 1.61,7 1.61,7.34 1.61,7.62 1.61,7.83 1.61,7.98 1.61,8.05 1.61,8.06 1.61,7.99 1.61,7.87 1.6,7.67 1.61,7.4 1.61,7.08 1.61,6.7 1.61,6.27 1.61,5.78 1.61,5.25 1.61,4.67 1.61,4.08 1.61,3.44 1.61,2.8 1.6,2.13 1.61,1.45 1.61,0.79 1.61,0.12 1.61,-0.54 1.61,-1.16 1.61,-1.77 1.61,-2.35 1.61,-2.88 1.61,-3.36 1.61,-3.81 1.6,-4.19 1.61,-4.53 1.61,-4.78 1.61,-4.99 1.61,-5.13 1.61,-5.2 1.61,-5.19 1.61,-5.12 1.61,-4.99 1.61,-4.78 1.61,-4.5 1.6,-4.18 1.61,-3.77 1.61,-3.33 1.61,-2.83 1.61,-2.27 1.61,-1.69 1.61,-1.06 1.61,-0.4 1.61,0.27 1.61,0.97 1.61,1.68 1.6,2.39 1.61,3.1 1.61,3.78 1.61,4.47 1.61,5.12 1.61,5.75 1.61,6.33 1.61,6.87 1.61,7.38 1.61,7.82 1.61,8.21 1.6,8.54 1.61,8.8 1.61,9 1.61,9.14 1.61,9.2 1.61,9.2 1.61,9.12 1.61,8.98 1.61,8.77 1.61,8.5 1.61,8.17 1.61,7.77 1.6,7.33 1.61,6.84 1.61,6.3 1.61,5.72 1.61,5.12 1.61,4.48 1.61,3.82 1.61,3.17 1.61,2.48 1.61,1.82 1.61,1.15 1.6,0.5 1.61,-0.12 1.61,-0.73 1.61,-1.29 1.61,-1.82 1.61,-2.3 1.61,-2.73 1.61,-3.11 1.61,-3.43 1.61,-3.68 1.61,-3.88 1.6,-3.99 1.61,-4.06 1.61,-4.04 1.61,-3.96 1.61,-3.81 1.61,-3.6 1.61,-3.31 1.61,-2.96 1.61,-2.57 1.61,-2.1 1.61,-1.59 1.6,-1.04 1.61,-0.44 1.61,0.2 1.61,0.85 1.61,1.54 1.61,2.23 1.61,2.94 1.61,3.65 1.61,4.36 1.61,5.05 1.61,5.72 1.6,6.37 1.61,6.99 1.61,7.57 1.61,8.11 1.61,8.6 1.61,9.03 1.61,9.42 1.61,9.73 1.61,9.98 1.61,10.18 1.61,10.29 1.6,10.35 1.61,10.34 1.61,10.24 1.61,10.1 1.61,9.87 1.61,9.59 1.61,9.25 1.61,8.85 1.61,8.39 1.61,7.9 1.61,7.35 1.6,6.76"
           style="fill:none;stroke:#808080;stroke-width:1.84096134;stroke-linecap:butt;stroke-linejoin:round;stroke-miterlimit:1;stroke-opacity:1;stroke-dasharray:7.36384517, 7.36384517;stroke-dashoffset:0"
           id="path4362"
           inkscape:connector-curvature="0" /><path
           d="m 753.23953,447.85624 1.61,-1.93 1.61,-1.66 1.61,-1.41 1.61,-1.17 1.61,-0.95 1.61,-0.75 1.61,-0.59 1.61,-0.44 1.61,-0.32 1.61,-0.23 1.6,-0.17 1.61,-0.14 1.61,-0.14 1.61,-0.17 1.61,-0.22 1.61,-0.31 1.61,-0.42 1.61,-0.55 1.61,-0.72 1.61,-0.91 1.61,-1.11 1.6,-1.33 1.61,-1.57 1.61,-1.82 1.61,-2.09 1.61,-2.36 1.61,-2.63 1.61,-2.92 1.61,-3.19 1.61,-3.46 1.61,-3.73 1.61,-3.99 1.6,-4.24 1.61,-4.46 1.61,-4.68 1.61,-4.88 1.61,-5.04 1.61,-5.19 1.61,-5.32 1.61,-5.41 1.61,-5.48 1.61,-5.52 1.61,-5.53 1.61,-5.51 1.6,-5.46 1.61,-5.39 1.61,-5.28 1.61,-5.15 1.61,-4.98 1.61,-4.81 1.61,-4.59 1.61,-4.37 1.61,-4.11 1.61,-3.85 1.61,-3.57 1.6,-3.28 1.61,-2.97 1.61,-2.67 1.61,-2.36 1.61,-2.05 1.61,-1.74 1.61,-1.43 1.61,-1.14 1.61,-0.86 1.61,-0.59 1.61,-0.33 1.6,-0.1 1.61,0.11 1.61,0.31 1.61,0.47 1.61,0.61 1.61,0.73 1.61,0.81 1.61,0.87 1.61,0.89 1.61,0.89 1.61,0.85 1.6,0.8 1.61,0.7 1.61,0.59 1.61,0.45 1.61,0.28 1.61,0.1 1.61,-0.12 1.61,-0.34 1.61,-0.58 1.61,-0.84 1.61,-1.1 1.6,-1.37 1.61,-1.66 1.61,-1.93 1.61,-2.2 1.61,-2.48 1.61,-2.75 1.61,-3 1.61,-3.24 1.61,-3.48 1.61,-3.68 1.61,-3.87 1.6,-4.04 1.61,-4.19 1.61,-4.3 1.61,-4.39 1.61,-4.46 1.61,-4.49 1.61,-4.5 1.61,-4.48 1.61,-4.42 1.61,-4.34 1.61,-4.23 1.6,-4.09 1.61,-3.93 1.61,-3.74 1.61,-3.53 1.61,-3.29 1.61,-3.04 1.61,-2.77 1.61,-2.5 1.61,-2.19 1.61,-1.9 1.61,-1.58 1.6,-1.28 1.61,-0.96 1.61,-0.66 1.61,-0.36 1.61,-0.06 1.61,0.22 1.61,0.49 1.61,0.74 1.61,0.96 1.61,1.18 1.61,1.37 1.6,1.53 1.61,1.66 1.61,1.77 1.61,1.85 1.61,1.91 1.61,1.92 1.61,1.92 1.61,1.87 1.61,1.82 1.61,1.72 1.61,1.59 1.61,1.46 1.6,1.28 1.61,1.09 1.61,0.88 1.61,0.65 1.61,0.4 1.61,0.15 1.61,-0.11 1.61,-0.4 1.61,-0.66 1.60997,-0.95 1.61,-1.22 1.6,-1.5 1.61,-1.76 1.61,-2.01 1.61,-2.25 1.61,-2.48 1.61,-2.69 1.61,-2.87 1.61,-3.04 1.61,-3.17 1.61,-3.29 1.61,-3.38 1.6,-3.43 1.61,-3.47 1.61,-3.47 1.61,-3.43 1.61,-3.38 1.61,-3.3 1.61,-3.18 1.61,-3.03 1.61,-2.87 1.61,-2.67 1.61,-2.46 1.6,-2.22 1.61,-1.97 1.61,-1.7 1.61,-1.41 1.61,-1.12 1.61,-0.81 1.61,-0.5 1.61,-0.2 1.61,0.12 1.61,0.43 1.61,0.72 1.6,1.02 1.61,1.29 1.61,1.56 1.61,1.81 1.61,2.04 1.61,2.24 1.61,2.43 1.61,2.58 1.61,2.71 1.61,2.82 1.61,2.89 1.6,2.94 1.61,2.96 1.61,2.94 1.61,2.9 1.61,2.83 1.61,2.73 1.61,2.6 1.61,2.46 1.61,2.28 1.61,2.09 1.61,1.87 1.6,1.64 1.61,1.39 1.61,1.14 1.61,0.87 1.61,0.59 1.61,0.31 1.61,0.04 1.61,-0.24 1.61,-0.51 1.61,-0.77 1.61,-1.02 1.6,-1.27 1.61,-1.48 1.61,-1.69 1.61,-1.87 1.61,-2.03 1.61,-2.17 1.61,-2.27 1.61,-2.36 1.61,-2.41 1.61,-2.44 1.61,-2.44 1.61,-2.4 1.6,-2.33 1.61,-2.25 1.61,-2.12 1.61,-1.98 1.61,-1.81 1.61,-1.61 1.61,-1.39 1.61,-1.15 1.61,-0.89 1.61,-0.62 1.61,-0.33 1.6,-0.04 1.61,0.27 1.61,0.58 1.61,0.89 1.61,1.2 1.61,1.51 1.61,1.8 1.61,2.1 1.61,2.37 1.61,2.63 1.61,2.88 1.6,3.1 1.61,3.31 1.61,3.48 1.61,3.64 1.61,3.76 1.61,3.86 1.61,3.94 1.61,3.97 1.61,3.98 1.61,3.97 1.61,3.92 1.6,3.85 1.61,3.74 1.61,3.61 1.61,3.46 1.61,3.28 1.61,3.08 1.61,2.87 1.61,2.63 1.61,2.38 1.61,2.12 1.61,1.85 1.6,1.58 1.61,1.3 1.61,1.02 1.61,0.74 1.61,0.48 1.61,0.21 1.61,-0.03 1.61,-0.27 1.61,-0.49 1.61,-0.69 1.61,-0.87 1.6,-1.03 1.61,-1.15 1.61,-1.26 1.61,-1.34 1.61,-1.39 1.61,-1.41 1.61,-1.4 1.61,-1.36 1.61,-1.3 1.61,-1.19 1.61,-1.08 1.6,-0.92 1.61,-0.74 1.61,-0.54 1.61,-0.33 1.61,-0.07 1.61,0.18 1.61,0.46 1.61,0.74 1.61,1.05 1.61,1.35 1.61,1.66 1.6,1.98 1.61,2.28 1.61,2.58 1.61,2.89 1.61,3.17 1.61,3.45 1.61,3.71 1.61,3.94 1.61,4.17 1.61,4.37 1.61,4.54 1.6,4.69 1.61,4.81 1.61,4.91 1.61,4.97 1.61,5.01 1.61,5.01 1.61,5 1.61,4.94 1.61,4.86 1.61,4.75 1.61,4.62 1.61,4.46 1.6,4.27 1.61,4.08 1.61,3.86 1.61,3.62 1.61,3.37 1.61,3.1 1.61,2.84 1.61,2.56 1.61,2.28 1.61,2.01 1.61,1.73 1.6,1.46 1.61,1.2 1.61,0.96 1.61,0.72 1.61,0.5 1.61,0.31 1.61,0.13 1.61,-0.01 1.61,-0.15 1.61,-0.25 1.61,-0.31 1.6,-0.37 1.61,-0.38 1.61,-0.36 1.61,-0.32 1.61,-0.25 1.61,-0.15 1.61,-0.02 1.61,0.14 1.61,0.32 1.61,0.52 1.61,0.75 1.6,0.99 1.61,1.26 1.61,1.54 1.61,1.82 1.61,2.13 1.61,2.43 1.61,2.75 1.61,3.05 1.61,3.37 1.61,3.67 1.61,3.96 1.6,4.25 1.61,4.52 1.61,4.78 1.61,5.02 1.61,5.23 1.61,5.43 1.61,5.6 1.61,5.74 1.61,5.86 1.61,5.95 1.61,6.01 1.6,6.04 1.61,6.05 1.61,6.01 1.61,5.96 1.61,5.87 1.61,5.77 1.61,5.62 1.61,5.46 1.61,5.28 1.61,5.07 1.61,4.85 1.6,4.61"
           style="fill:none;stroke:#808080;stroke-width:4.1682148;stroke-linecap:butt;stroke-linejoin:round;stroke-miterlimit:1;stroke-opacity:1;stroke-dasharray:none"
           id="path4364"
           inkscape:connector-curvature="0" /><path
           sodipodi:type="arc"
           style="fill:#808080;fill-opacity:1;stroke:#999999;stroke-width:2.38803959;stroke-linecap:round;stroke-linejoin:round;stroke-miterlimit:1;stroke-opacity:1;stroke-dasharray:none;stroke-dashoffset:0"
           id="path4368"
           sodipodi:cx="-580.9679"
           sodipodi:cy="600.11432"
           sodipodi:rx="6.8397932"
           sodipodi:ry="6.8397932"
           d="m -574.1281,600.11432 c 0,3.77751 -3.06228,6.83979 -6.8398,6.83979 -3.77751,0 -6.83979,-3.06228 -6.83979,-6.83979 0,-3.77751 3.06228,-6.83979 6.83979,-6.83979 3.77752,0 6.8398,3.06228 6.8398,6.83979 z"
           transform="matrix(0.58181819,0,0,-0.58181819,1389.2513,468.98668)" /><text
           transform="scale(1,-1)"
           sodipodi:linespacing="125%"
           id="text4374"
           y="-477.52097"
           x="810.47211"
           style="font-size:13.82771587px;font-style:normal;font-variant:normal;font-weight:normal;font-stretch:normal;text-align:start;line-height:125%;letter-spacing:0px;word-spacing:0px;writing-mode:lr-tb;text-anchor:start;fill:#000000;fill-opacity:1;stroke:none;font-family:EHUSerif;-inkscape-font-specification:EHUSerif"
           xml:space="preserve"><tspan
             y="-477.52097"
             x="810.47211"
             id="tspan4376"
             sodipodi:role="line">Helburu funtzio</tspan><tspan
             id="tspan4378"
             y="-460.23633"
             x="810.47211"
             sodipodi:role="line">Originala</tspan></text>
<text
           xml:space="preserve"
           style="font-size:13.82771587px;font-style:normal;font-variant:normal;font-weight:normal;font-stretch:normal;text-align:start;line-height:125%;letter-spacing:0px;word-spacing:0px;writing-mode:lr-tb;text-anchor:start;fill:#000000;fill-opacity:1;stroke:none;font-family:EHUSerif;-inkscape-font-specification:EHUSerif"
           x="1297.2842"
           y="-311.47079"
           id="text4380"
           sodipodi:linespacing="125%"
           transform="scale(1,-1)"><tspan
             sodipodi:role="line"
             x="1297.2842"
             y="-311.47079"
             id="tspan4382">Helburu funtzio</tspan><tspan
             id="tspan4384"
             sodipodi:role="line"
             x="1297.2842"
             y="-294.18616">leundua</tspan></text>
<text
           transform="scale(1,-1)"
           sodipodi:linespacing="125%"
           id="text5181"
           y="-131.06491"
           x="1077.8744"
           style="font-size:13.82771587px;font-style:normal;font-variant:normal;font-weight:normal;font-stretch:normal;text-align:start;line-height:125%;letter-spacing:0px;word-spacing:0px;writing-mode:lr-tb;text-anchor:start;fill:#000000;fill-opacity:1;stroke:none;font-family:EHUSerif;-inkscape-font-specification:EHUSerif"
           xml:space="preserve"><tspan
             id="tspan5183"
             y="-131.06491"
             x="1077.8744"
             sodipodi:role="line">Hasierako</tspan><tspan
             id="tspan5185"
             y="-113.78027"
             x="1077.8744"
             sodipodi:role="line">soluzioa</tspan></text>
<path
           inkscape:connector-curvature="0"
           id="path4408-1"
           d="m 1073.1288,148.02598 c -15.1949,7.55095 -19.1435,-7.5749 -22.0248,-21.22821"
           style="fill:none;stroke:#b3b3b3;stroke-width:2.77880979;stroke-linecap:butt;stroke-linejoin:miter;stroke-miterlimit:4;stroke-opacity:1;stroke-dasharray:none;marker-end:url(#Arrow1MendJ)"
           sodipodi:nodetypes="cc" /><text
           transform="scale(1,-1)"
           xml:space="preserve"
           style="font-size:13.82771587px;font-style:normal;font-variant:normal;font-weight:normal;font-stretch:normal;text-align:start;line-height:125%;letter-spacing:0px;word-spacing:0px;writing-mode:lr-tb;text-anchor:start;fill:#000000;fill-opacity:1;stroke:none;font-family:EHUSerif;-inkscape-font-specification:EHUSerif"
           x="1024.1652"
           y="-173.95345"
           id="text5169-3"
           sodipodi:linespacing="125%"><tspan
             sodipodi:role="line"
             x="1024.1652"
             y="-173.95345"
             id="tspan5177-9">Bilaketa </tspan><tspan
             id="tspan3211"
             sodipodi:role="line"
             x="1024.1652"
             y="-156.66881">lokala</tspan></text>
<path
           transform="matrix(0.58181819,0,0,-0.58181819,1413.7917,495.84841)"
           d="m -574.1281,600.11432 c 0,3.77751 -3.06228,6.83979 -6.8398,6.83979 -3.77751,0 -6.83979,-3.06228 -6.83979,-6.83979 0,-3.77751 3.06228,-6.83979 6.83979,-6.83979 3.77752,0 6.8398,3.06228 6.8398,6.83979 z"
           sodipodi:ry="6.8397932"
           sodipodi:rx="6.8397932"
           sodipodi:cy="600.11432"
           sodipodi:cx="-580.9679"
           id="path4370"
           style="fill:#808080;fill-opacity:1;stroke:#999999;stroke-width:2.38803959;stroke-linecap:round;stroke-linejoin:round;stroke-miterlimit:1;stroke-opacity:1;stroke-dasharray:none;stroke-dashoffset:0"
           sodipodi:type="arc" /><text
           transform="scale(1,-1)"
           sodipodi:linespacing="125%"
           id="text3241"
           y="-104.24023"
           x="1002.0123"
           style="font-size:13.82771587px;font-style:normal;font-variant:normal;font-weight:normal;font-stretch:normal;text-align:start;line-height:125%;letter-spacing:0px;word-spacing:0px;writing-mode:lr-tb;text-anchor:start;fill:#000000;fill-opacity:1;stroke:none;font-family:EHUSerif;-inkscape-font-specification:EHUSerif"
           xml:space="preserve"><tspan
             id="tspan3243"
             y="-104.24023"
             x="1002.0123"
             sodipodi:role="line">Optimo</tspan><tspan
             y="-86.955582"
             x="1002.0123"
             sodipodi:role="line"
             id="tspan3245">lokal berria</tspan></text>
</g><text
         transform="scale(1,-1)"
         sodipodi:linespacing="125%"
         id="text3401"
         y="-13.373335"
         x="235.34401"
         style="font-size:25.20760155px;font-style:normal;font-variant:normal;font-weight:normal;font-stretch:normal;text-align:start;line-height:125%;letter-spacing:0px;word-spacing:0px;writing-mode:lr-tb;text-anchor:start;fill:#000000;fill-opacity:1;stroke:none;font-family:EHUSerif;-inkscape-font-specification:EHUSerif"
         xml:space="preserve"><tspan
           y="-13.373335"
           x="235.34401"
           id="tspan3403"
           sodipodi:role="line">Hasierako iterazioa</tspan></text>
<text
         xml:space="preserve"
         style="font-size:25.20760155px;font-style:normal;font-variant:normal;font-weight:normal;font-stretch:normal;text-align:start;line-height:125%;letter-spacing:0px;word-spacing:0px;writing-mode:lr-tb;text-anchor:start;fill:#000000;fill-opacity:1;stroke:none;font-family:EHUSerif;-inkscape-font-specification:EHUSerif"
         x="953.89978"
         y="-13.360731"
         id="text3405"
         sodipodi:linespacing="125%"
         transform="scale(1,-1)"><tspan
           sodipodi:role="line"
           id="tspan3407"
           x="953.89978"
           y="-13.360731">Tarteko iterazio bat</tspan></text>
</g></g></svg>